<?xml version="1.0" encoding="UTF-8"?>
<svg data-bbox="20 22 160 156" viewBox="0 0 200 200" height="200" width="200" xmlns="http://www.w3.org/2000/svg" data-type="color">
    <g>
        <path d="M140.146 164.732a2.77 2.77 0 0 1-2.762-2.777v-59.09c0-20.725-16.77-37.588-37.383-37.588-20.611 0-37.38 16.863-37.38 37.588v59.09a2.77 2.77 0 0 1-2.762 2.777 2.77 2.77 0 0 1-2.762-2.777v-59.09c0-23.788 19.247-43.143 42.904-43.143 23.66 0 42.907 19.354 42.907 43.143v59.09a2.77 2.77 0 0 1-2.762 2.777z" fill="#266040" data-color="1"/>
        <path d="M177.238 49.451H22.762A2.77 2.77 0 0 1 20 46.674V24.777A2.77 2.77 0 0 1 22.762 22h154.476A2.77 2.77 0 0 1 180 24.777v21.896a2.77 2.77 0 0 1-2.762 2.778zM25.524 43.896h148.952V27.555H25.524v16.341z" fill="#266040" data-color="1"/>
        <path d="M177.238 178H22.762A2.77 2.77 0 0 1 20 175.223v-13.268a2.77 2.77 0 0 1 2.762-2.777h154.476a2.77 2.77 0 0 1 2.762 2.777v13.268a2.77 2.77 0 0 1-2.762 2.777zm-151.714-5.555h148.952v-7.714H25.524v7.714z" fill="#266040" data-color="1"/>
        <path d="M164.068 164.732H35.932a2.77 2.77 0 0 1-2.762-2.777V46.674a2.77 2.77 0 0 1 2.762-2.777h128.136a2.77 2.77 0 0 1 2.762 2.777v115.281a2.77 2.77 0 0 1-2.762 2.777zm-125.374-5.555h122.612V49.451H38.694v109.726z" fill="#266040" data-color="1"/>
        <path d="M101.223 164.732c-15.766 0-28.591-12.899-28.591-28.753 0-13.203 7.887-22.541 14.842-30.782C93.369 98.217 98.461 92.185 98.461 85c0-1.19.752-2.246 1.87-2.629a2.756 2.756 0 0 1 3.079.933c24.509 31.928 26.404 41.971 26.404 52.675 0 15.853-12.825 28.753-28.591 28.753zm1.658-72.959c-2.01 6.144-6.506 11.467-11.195 17.018-6.65 7.88-13.53 16.024-13.53 27.187 0 12.791 10.347 23.198 23.067 23.198s23.067-10.408 23.067-23.198c0-9.04-1.608-17.683-21.409-44.205z" fill="#266040" data-color="1"/>
        <path d="M102.445 164.732c-9.534 0-17.291-7.8-17.291-17.387 0-7.876 4.589-13.312 8.638-18.107 3.161-3.743 5.891-6.976 5.891-10.57a2.78 2.78 0 0 1 1.755-2.586 2.737 2.737 0 0 1 3.035.702c15.263 16.613 15.263 26.388 15.263 30.561 0 9.587-7.757 17.387-17.291 17.387zm1.425-40.232c-1.385 3.023-3.647 5.707-5.866 8.332-3.769 4.463-7.326 8.676-7.326 14.512 0 6.524 5.279 11.833 11.767 11.833 6.488 0 11.767-5.309 11.767-11.833.001-3.471.001-10.353-10.342-22.844z" fill="#266040" data-color="1"/>
    </g>
</svg>
