<svg viewBox="0 0 200 200" height="200" width="200" xmlns="http://www.w3.org/2000/svg" data-type="color">
    <g>
        <path d="M100 20c-32 0-58 26.1-58 58.3v43.5c0 32.1 26 58.3 58 58.3s58-26.1 58-58.3V78.3c0-32.2-26-58.3-58-58.3zm54.6 101.7c0 30.3-24.5 54.9-54.6 54.9S45.4 152 45.4 121.7V78.3c0-30.3 24.5-54.9 54.6-54.9s54.6 24.6 54.6 54.9v43.4zm-21.7-1.8l3.9-19 3.9 19h-7.8zM71.1 69.1c4.9 0 8.8-4 8.8-8.9s-4-8.9-8.8-8.9-8.8 4-8.8 8.9 3.9 8.9 8.8 8.9zm0-14.4c3 0 5.5 2.5 5.5 5.5s-2.4 5.5-5.5 5.5c-3 0-5.5-2.5-5.5-5.5s2.5-5.5 5.5-5.5zm61.1 19.6h-2.8l-3.9 6.9-3.6 7.9-6.3 4.1-7.8 13.1-1.4-1.5-1.8-7.3-7.4-12.1H91l-4.8 5.8-2.8-13.8-4.5 21.9h-5l-6.7 5.1-2.4 3.7-2.1 2.6-5.3-4.1-7.8 13v1.1c0 28.2 22.8 51.1 50.9 51.1 25.5 0 47.2-19.2 50.5-44.6V113l-.1-12.3-5.6-13.1-7.4-2c.1 0-5.7-11.3-5.7-11.3zm-29 52.6c.6 0 8.8.4 16.3 1.3-21.8 3.1-42 9.1-59.1 17.8-2.9-4.7-5-9.8-6.2-15.2 5.4-1 26.8-4.6 49-3.9zm-2.6 41.5c-15.7 0-29.7-7.7-38.4-19.6 22.4-11.2 49.9-17.9 79.7-19.4 1.8-.1 3.6-.2 5.4-.2-.5 2.5-1.1 5-2 7.5-40.8 3.6-66.6 15.7-66.9 15.9l1.4 3.1c.3-.1 24.9-11.6 64-15.4-7.4 16.7-24.1 28.1-43.2 28.1zm47-67l.1 11.6v12.8c-2 .1-4 .1-5.9.2-1.1.1-2.2.1-3.4.2v-4.1H135v4.3c-1.3.1-2.5.2-3.8.3-6.8-2.2-27-3.4-27.9-3.4l-.1 1.8.1-1.7c-6.1-.2-12.2 0-17.9.3v-4.3H82v4.5c-13.6.9-24.6 2.8-28.4 3.5-.3-2.2-.5-4.5-.5-6.8v-.1l5.4-9 4.9 3.7 4.2-5.2 2.2-3.4 5.3-4.1h3.2l-2.9 14.4h16.2l-4.4-21.7v-.1l5.4-6.7h2.8l6.1 10.1 1.9 7.6 5 5.5 9.8-16.3 6.5-4.2 3.9-8.6 2.2-3.9 4.9 9.7 7.3 1.9 4.6 11.2zM95.2 65.6c1.5 0 1.4 2.3 0 2.3-1.5 0-1.5-2.3 0-2.3zm12.9-7.6c1.5 0 1.4 2.3 0 2.3-1.4-.1-1.4-2.3 0-2.3zM107 71.8c1.5 0 1.4 2.3 0 2.3-1.5 0-1.5-2.3 0-2.3zM91.8 49.2c1.5 0 1.4 2.3 0 2.3-1.5 0-1.5-2.3 0-2.3zm-20.3 26c1.5 0 1.4 2.3 0 2.3s-1.4-2.3 0-2.3zm7.9-38.1c1.5 0 1.4 2.3 0 2.3-1.4-.1-1.4-2.3 0-2.3zM54.6 76.4c1.5 0 1.4 2.3 0 2.3-1.4-.1-1.4-2.3 0-2.3zm7.7 12.2l.6-.6c1-1 2.6.6 1.6 1.6l-.6.6c-1 1-2.6-.6-1.6-1.6zm34-51.8c1.5 0 1.4 2.3 0 2.3-1.5-.1-1.5-2.3 0-2.3zm27 10.2c1.5 0 1.4 2.3 0 2.3-1.5-.1-1.4-2.3 0-2.3zm20.8 25.4c1.5 0 1.4 2.3 0 2.3s-1.4-2.3 0-2.3zm-55.1 0c1.5 0 1.4 2.3 0 2.3-1.5 0-1.5-2.3 0-2.3zm50.5-14.9l-1.7 2.9c-2.1-1.2-4.6-.8-6.2.7v.1l-.2.1c-.3.3-.5.6-.8 1l-.1.1-1.2 1.7-2.8-1.9.7-1c-1.6-1.4-3.9-1.6-5.8-.6l-1.6-3c1.4-.7 3-1.1 4.6-.9 1.8.1 3.4.8 4.8 1.9 1-.9 2.2-1.6 3.6-1.9 2.4-.7 4.7-.4 6.7.8z" fill="#dda831" data-color="1"/>
    </g>
</svg>
