<?xml version="1.0" encoding="UTF-8"?>
<svg data-bbox="58.861 35.533 82.276 128.938" viewBox="0 0 200 200" height="200" width="200" xmlns="http://www.w3.org/2000/svg" data-type="color">
    <g>
        <path d="M101.808 60.44c1.432.535 1.878.632 3.485.736 3.149-.048 6.432-1.48 8.168-3.563 1.955-2.338 3.637-8.655 3.864-11.178.456-5.042-3.217-9.287-9.142-10.563-5.961-1.279-10.885 1.129-12.267 6.007-.686 2.425-1.383 8.947-.415 11.902.853 2.622 3.359 5.285 6.307 6.659zm-3.972-18.017c1.031-3.635 4.179-4.884 7.29-4.884.898 0 1.795.104 2.635.286 3.773.812 8.022 3.508 7.575 8.431-.227 2.533-1.915 8.292-3.408 10.078-1.363 1.636-4.105 2.806-6.584 2.848-1.34-.09-1.578-.142-2.763-.581-2.368-1.106-4.498-3.343-5.182-5.439-.745-2.27-.255-8.298.437-10.739zm43.215 43.882a.955.955 0 0 0-.038-.211c-.391-1.336-1.608-1.822-2.967-1.985l.277-4.081-1.991-.135-.282 4.149c-.196.004-.389.009-.576.016-.372.009-.719.025-1.025.016a1.148 1.148 0 0 0-.333.052l-1.477.494-13.919-.143-8.405-15.963c-2.61-4.955-8.815-8.17-14.401-7.45-.595.074-1.279.207-2.011.433-.049-.133-.099-.266-.148-.402-.715-1.948-1.454-3.963-3.151-4.266-1.976-.354-4.311-.751-6.657-1.006-4.988-.558-11.451 6.603-14.925 10.445l-.564.623a1 1 0 0 0-.216.378c-.253.82-6.201 20.128-6.82 22.791-.675 2.909.716 6.999.776 7.171.1.291.328.519.617.619l15.703 5.419c-.338 2.373-.372 4.706.977 7.155l-.116.007.75 13.233c.047.844-.277 1.617-1.006 2.381L60.89 146.118l-.19.242c-1.041 1.317-2.979 3.768-.951 5.88l14.189 11.521c.751.677 1.882.584 2.95-.251 1.413-1.101 2.347-3.148 1.371-4.978l-4.301-7.082.088-1.244 16.821-16.434a45.972 45.972 0 0 0 2.13-2.68c.745-.854 1.314-1.93 1.699-3.208l3.095 3.473c.636.642 1.014 1.419 1.153 2.353l3.26 26.204c.346 2.802 1.82 4.506 3.941 4.557h.023c.071 0 .144-.008.214-.023l17.632-3.878c.961-.1 1.649-.955 1.811-2.258.218-1.778-.569-3.885-2.497-4.472a.97.97 0 0 0-.25-.042l-8.287-.347-.766-.883-1.249-24.153c-.157-3.04-.517-3.739-1.74-5.697a75.068 75.068 0 0 1-.879-1.434l-9.057-13.303-.377-.545c-.851-1.219-1.109-1.587-.567-3.153l5.104-18.034c1.896 2.958 3.791 5.92 5.69 8.893a.998.998 0 0 0 .257.273l2.303 1.661c.177.126.394.185.608.188l21.155-.524-4.596 66.393 1.991.138 4.578-66.136.036-.515a3.927 3.927 0 0 0 1.921-1.079c1.573-1.577 2.175-4.599 1.848-9.236zM78.879 101.1l-.03.169-14.905-5.144c-.315-1.062-1.007-3.758-.577-5.614.569-2.45 6.054-20.286 6.718-22.444l.419-.461c3.005-3.323 9.258-10.221 13.226-9.8 2.286.25 4.58.639 6.523.988.568.101 1.231 1.908 1.627 2.988l.173.469c-2.568 1.327-5.264 3.999-6.532 9.332L78.879 101.1zm14.085 25.537c-.298 1.308-.792 2.364-1.519 3.203a48.793 48.793 0 0 1-2.03 2.566L72.383 149.04a.997.997 0 0 0-.298.642l-.139 1.939c-.014.207.035.413.143.59l4.439 7.306c.329.616.026 1.292-.185 1.64-.376.624-.918.987-1.157 1.042l-14.085-11.426c-.619-.649-.068-1.618 1.167-3.179l18.316-20.191c1.1-1.15 1.618-2.446 1.54-3.854l-.593-10.442c.018.02.036.038.055.056l11.507 12.914-.129.56zm44.829-32.505c-.455.458-1.019.642-1.879.597l-21.503.529-1.877-1.353a6969.725 6969.725 0 0 0-9.626-15.029l-.539-.84-1.679 1.079.539.84 2.597 4.046-5.569 19.681c-.858 2.473-.11 3.543.834 4.896l9.385 13.775c.334.561.621 1.022.87 1.419 1.077 1.725 1.302 2.083 1.44 4.744l1.267 24.496a1 1 0 0 0 .243.602l1.272 1.467a.99.99 0 0 0 .712.343l8.57.359c.593.239.833.879.927 1.25.177.711.048 1.354-.083 1.561-.013.001-.027.005-.042.008l-17.566 3.864c-1.363-.116-1.775-1.794-1.9-2.801l-3.262-26.229c-.205-1.373-.781-2.546-1.677-3.448l-16.205-18.189c-3.407-3.473-2.893-6.397-2.243-10.1l6.665-29.665c.981-4.121 3.097-6.976 6.072-8.277l.26-.109a9.51 9.51 0 0 1 2.366-.604c4.813-.613 10.143 2.142 12.384 6.4l8.684 16.49a1 1 0 0 0 .873.533l14.682.151a1.13 1.13 0 0 0 .328-.052l1.478-.494h.01c.286 0 .599-.009.931-.018 1.135-.036 3.212-.092 3.537.533.324 4.844-.513 6.778-1.276 7.545z" fill="#000010" data-color="1"/>
        <path d="M92.053 62.25c-.057-.155-.114-.312-.173-.469-.396-1.08-1.059-2.887-1.627-2.988-1.943-.348-4.237-.738-6.523-.988-3.968-.421-10.221 6.477-13.226 9.8l-.419.461c-.664 2.158-6.149 19.994-6.718 22.444-.43 1.856.263 4.552.577 5.614l14.905 5.144.03-.169 6.642-29.517c1.268-5.332 3.964-8.005 6.532-9.332z" fill="#E60000" data-color="2"/>
    </g>
</svg>
