<?xml version="1.0" encoding="UTF-8"?>
<svg data-bbox="17.975 36.139 163.925 127.861" viewBox="0 0 200 200" height="200" width="200" xmlns="http://www.w3.org/2000/svg" data-type="color">
    <g>
        <path d="M45.4 164h-6.5c-1.6 0-3.1-1.1-3.6-2.6-.8-2.4-1.8-4.3-2.3-5.2-.9-1.5-1.4-3.2-1.5-5l-.8-14.7v-.2c.1-1.5.1-3.1 0-4.6 0-3.4-.1-6.3.8-8.4 1-2.3 2.7-3.9 4.3-5.4.4-.4.8-.7 1.2-1.1 3.8-3.8 6.8-12.6 5-17.5l-.6-1.6c-2-5.4-3.9-10.5-3.8-15.8.1-8.2 5.2-15.9 12.6-19.2 5.3-2.4 11.6-2.7 19.4-1.1 2.8.6 5.6 1.4 8.2 2.1 3.2.9 6.4 1.8 9.7 2.4 3.2.6 6.4.9 9.6.9h.1c10.8 0 21.3-4.8 28.8-13.1l4.8-5.3c3.4-3.8 7.3-6.8 11.5-8.9 15.5-7.7 28.3-.8 31.4 1.1l5.9-1c.8-.1 1.6.2 2 .9.4.7.4 1.5 0 2.2l-4 6.4.4 3.5c1.5 8.5-1.4 12.3-3.1 13.8v14.1c0 .3-.1.6-.2.9-.9 1.7-2.2 2.9-3.9 3.5-3.6 1.3-7.7-.5-9.1-4.2l-2.5-6.2c-3-1.3-7.3-4.6-6.8-10.3.1-1.1 1.1-1.9 2.2-1.8 1.1.1 1.9 1.1 1.8 2.2-.4 4.7 4.7 6.4 4.9 6.5.6.2 1 .6 1.2 1.1l2.9 7c.7 1.6 2.5 2.5 4 1.9.6-.2 1.1-.7 1.5-1.3V65.4c0-.8.5-1.5 1.2-1.8.1-.1 3.5-2 2-10.3v-.1l-.5-4.2c-.1-.5 0-.9.3-1.3l2.1-3.3-2.3.4c-.5.1-1.1 0-1.5-.4-.5-.4-12.7-8.9-28-1.3-3.8 1.9-7.3 4.6-10.3 8l-4.8 5.3c-8.3 9.2-19.9 14.4-31.8 14.4h-.1c-3.4 0-6.8-.3-10.3-.9-3.4-.6-6.8-1.6-10-2.5-2.6-.7-5.3-1.5-8-2.1-6.9-1.5-12.5-1.2-16.9.8-5.9 2.7-10.1 9.1-10.2 15.7-.1 4.6 1.6 9.1 3.5 14.4l.6 1.6c2.5 6.5-1.1 16.8-5.9 21.7l-1.2 1.2c-1.4 1.3-2.7 2.6-3.4 4.1-.5 1.3-.5 4.1-.5 6.7v4.7l.8 14.6c.1 1.1.4 2.2 1 3.2s1.8 3.2 2.7 5.9h5.9c-.7-1.7-1.5-3.3-2.2-4.9-1.9-4-3.7-7.7-3.6-12.5.3-8.3 4.8-16.2 12.6-22.2 2.2-1.7 4.4-3.2 6.6-4.7 4.8-3.3 9.3-6.4 12.9-10.5 1.8-2 3.2-4.2 4.1-6.3.4-1 1.6-1.5 2.6-1.1 1 .4 1.5 1.6 1.1 2.6-1.1 2.5-2.7 5-4.7 7.3-4 4.5-8.9 7.9-13.7 11.2-2.2 1.5-4.4 3-6.5 4.6-6.9 5.3-10.8 12.1-11.1 19.2-.1 3.8 1.4 7 3.2 10.7.8 1.8 1.7 3.6 2.5 5.6.4 1.2.3 2.4-.4 3.5-.9 1-2 1.6-3.3 1.6z" fill="#ED2939" data-color="1"/>
        <path d="M29.4 112.3H29c-1.1-.2-1.8-1.2-1.6-2.3.7-4 1.1-8 1.2-12.1v-5.5c0-2.1-.1-4 0-5.8 0-1.1 1-2 2.1-1.9 1.1 0 2 1 1.9 2.1-.1 1.8 0 3.6 0 5.6 0 1.9.1 3.8 0 5.7-.1 4.3-.5 8.5-1.3 12.7-.1.9-1 1.5-1.9 1.5z" fill="#ED2939" data-color="1"/>
        <path d="M20 122.3c-.2 0-.4 0-.7-.1-1-.4-1.6-1.5-1.2-2.6 2.4-6.8 3.7-13.8 3.8-21v-5.2c0-2.1-.1-4.2 0-6.3.2-4.8.9-8.6 2.3-11.9 1.9-4.3 4.9-7.6 8.6-9.2 4.3-1.9 9.5-1.4 12.8 1.4.9.7 1 2 .3 2.8-.7.9-2 1-2.8.3-2.2-1.8-5.7-2.1-8.7-.8-2.7 1.2-5.1 3.8-6.6 7.2-1.2 2.8-1.9 6.1-2 10.5-.1 2 0 4.1 0 6.1 0 1.7.1 3.6 0 5.3-.2 7.6-1.5 15.1-4.1 22.3-.1.7-.9 1.2-1.7 1.2z" fill="#ED2939" data-color="1"/>
        <path d="M84.8 153.6h-.4c-1.9-.4-4-.9-5.9-2.1-2.4-1.6-3.7-4.2-3.4-6.6.1-.7.3-1.3.4-1.8.2-.5.3-1 .3-1.3-.1-.3-.7-.8-1.9-1.3l-14.4-6.1c-2.4-1-5.1-2.1-7.2-4.2-.8-.8-.8-2 0-2.8.8-.8 2-.8 2.8 0 1.6 1.5 3.8 2.5 6 3.4l14.4 6.1c1.2.5 3.7 1.6 4.3 4.1.3 1.3-.1 2.4-.4 3.4-.1.4-.2.8-.3 1.1-.1.9.5 2 1.6 2.8.7.5 1.6.8 2.4 1 .2-1.8.4-3.6.3-5.3-.1-1.8-.5-4.3-2.1-6.2-1.6-2.1-4.3-3.3-7-4.6-.4-.2-.9-.4-1.3-.6-3.1-1.5-7.4-3.9-8.8-8.4-.3-.9-.4-1.8-.4-2.8 0-1.1.9-2 2-2s2 .9 2 2c0 .6.1 1.1.3 1.7.7 2.2 2.8 4.1 6.7 5.9.4.2.9.4 1.3.6 3.1 1.4 6.3 2.9 8.5 5.7 1.7 2.2 2.7 5.1 2.9 8.5.2 2.8-.2 5.6-.6 8.3-.1.5-.4 1-.8 1.4-.5 0-.9.1-1.3.1z" fill="#ED2939" data-color="1"/>
        <path d="M137.8 153c-.4 0-.8-.1-1.3-.2-2-.8-2.6-2.9-2.8-3.8-.3-1.1-.7-2.4-.7-3.8 0-1.8.7-3.5 2-4.5 1.4-1.2 3.1-1.3 4.5-1.4h.5c1.3-.1 1.8-.5 1.8-.6.1-.1.1-.4.1-.7 0-.3.1-.6.1-.8.5-2 1.8-3.5 3-4.7.4-.4.7-.8 1-1.2 1.1-1.4 1.5-3.6.9-6.7-.2-1.2-1-2.1-2.1-2.5-3.2-1.1-6.3-2.6-9.3-3.9-2-.9-4-1.8-5.9-2.6-9.3-3.8-13.4-2.9-18.6-1.8-1.8.4-3.7.8-5.9 1.1-11 1.4-17.7-1.2-23.6-3.4-3-1.1-5.8-2.2-9-2.8-1.1-.2-1.8-1.2-1.6-2.3.2-1.1 1.2-1.8 2.3-1.6 3.6.7 6.7 1.8 9.7 3 5.7 2.2 11.7 4.5 21.7 3.2 2.1-.3 3.8-.7 5.6-1 5.6-1.3 10.5-2.4 21 2 2 .8 4.1 1.8 6.1 2.7 2.9 1.3 6 2.7 9 3.8 2.4.9 4.2 3 4.7 5.6.7 4.3.1 7.7-1.8 10-.4.5-.8.9-1.2 1.4-1 1-1.8 1.9-2 2.9 0 .2-.1.3-.1.5-.1.5-.2 1.2-.5 1.8-.6 1.2-1.9 2.6-5.1 2.9h-.5c-.9.1-1.8.1-2.3.5-.3.3-.5.8-.5 1.5 0 .8.3 1.8.5 2.7.2.6.3.9.4 1.1.2 0 .4-.1.6-.2l.4-.1c4.8-1.6 12.6-13.3 15.2-18.9 1.8-3.6 2.4-5.4 2.4-8.2 0-1.1-.3-2.2-.9-3.1-.8-1.4-2.2-2.5-3.6-3.5l-11.3-8.9c-.5-.4-.7-.9-.8-1.5 0-.6.2-1.1.6-1.5 4.6-4.5 5.5-9.4 7.5-20 .8-3.9 1.6-8.4 2.8-13.9 1-4.4 2.4-8.9 6.1-11.6.9-.7 2.1-.5 2.8.4.7.9.5 2.1-.4 2.8-2.6 1.9-3.7 5.6-4.6 9.3-1.2 5.4-2.1 9.9-2.8 13.8-1.9 10-3 15.5-7.1 20.4l9.6 7.5c1.6 1.2 3.3 2.6 4.5 4.6.9 1.6 1.4 3.3 1.4 5.2 0 3.7-.9 6.1-2.8 10-2.3 4.8-10.7 18.7-17.6 20.9l-.3.1c-.3-.3-1 0-1.8 0z" fill="#ED2939" data-color="1"/>
        <path d="M134.1 163.7h-7.9c-1 0-1.9-.4-2.6-1.1-.7-.7-1-1.7-.9-2.7.2-2.3 0-3.9-.6-5.2-.1-.2-.3-.5-.4-.7-.3-.6-.7-1.4-1-2.2-.7-2-.4-4.1-.2-5.9v-.3c1.2-10.2.1-20.3-1.1-28.9-.2-1.1.6-2.1 1.7-2.3 1.1-.2 2.1.6 2.3 1.7 1.3 8.8 2.4 19.3 1.1 29.9v.3c-.2 1.5-.4 3 0 4.2.2.5.4 1 .7 1.5.1.3.3.6.4.8 1.2 2.4 1.2 4.9 1.1 6.8h6.7c-.6-1.7-1.7-3.2-2.7-4.7-.9-1.3-1.8-2.6-2.4-4-.7-2-1.3-7.3 2.6-30.1.2-1.1 1.2-1.8 2.3-1.6 1.1.2 1.8 1.2 1.6 2.3-3.7 22-3.2 26.9-2.8 28 .3.9 1.1 2 1.9 3.1 1.3 1.8 2.7 3.8 3.4 6.5.3 1.1.1 2.2-.6 3.1-.5.9-1.5 1.5-2.6 1.5z" fill="#ED2939" data-color="1"/>
    </g>
</svg>
