<?xml version="1.0" encoding="UTF-8"?>
<svg data-bbox="27.5 20 145.001 160" viewBox="0 0 200 200" height="200" width="200" xmlns="http://www.w3.org/2000/svg" data-type="color">
    <g>
        <path d="M87.574 61.933a1.545 1.545 0 0 1-1.299-.704c-2.753-4.247-4.376-8.83-4.696-13.252-.161-2.216 1.775-8.765 8.78-14.852 3.444-2.996 7.452-5.31 11.913-6.881a1.543 1.543 0 0 1 1.972.938 1.536 1.536 0 0 1-.942 1.963c-4.091 1.44-7.76 3.558-10.911 6.296-6.615 5.749-7.789 11.496-7.73 12.316.283 3.908 1.74 7.99 4.21 11.804a1.533 1.533 0 0 1-.459 2.126 1.56 1.56 0 0 1-.838.246z" fill="#3F4447" data-color="1"/>
        <path d="M100.763 78.371a.722.722 0 0 0-.104 0h-.03a6.144 6.144 0 0 1-3.497-1.123c-6.258-4.397-9.568-9.342-11.072-16.54a1.536 1.536 0 0 1 1.197-1.819 1.538 1.538 0 0 1 1.827 1.192c1.348 6.45 4.195 10.695 9.824 14.651a3.02 3.02 0 0 0 3.477-.003c5.708-4.012 8.584-8.256 9.92-14.647a1.527 1.527 0 0 1 1.827-1.192 1.536 1.536 0 0 1 1.197 1.819c-1.492 7.139-4.832 12.084-11.169 16.536a6.17 6.17 0 0 1-3.397 1.126z" fill="#3F4447" data-color="1"/>
        <path d="M86.633 75.666c-.436 0-.872-.184-1.177-.542a1.533 1.533 0 0 1 .176-2.168c.723-.612 1.034-1.323-1.105-5.477-1.806-3.51.101-6.53 1.666-7.944.273-1.041.776-2.648 1.604-4.235 1.987-3.822 4.805-6.031 6.009-6.976 1.194-.935 2.49-1.696 3.744-2.43 1.043-.612 2.089-1.223 3.058-1.936 2.267-1.669 3.881-3.446 4.937-5.429a1.543 1.543 0 0 1 2.087-.639 1.532 1.532 0 0 1 .642 2.078c-1.276 2.4-3.182 4.514-5.829 6.463-1.055.776-2.191 1.445-3.326 2.113-1.22.714-2.372 1.39-3.403 2.198-1.132.888-3.494 2.74-5.175 5.973-.823 1.579-1.271 3.202-1.464 4.029-.084.354-.29.668-.582.884-.25.19-2.481 1.993-1.219 4.447 1.522 2.954 3.417 6.632.357 9.224a1.542 1.542 0 0 1-1 .367z" fill="#3F4447" data-color="1"/>
        <path d="M113.818 61.933a1.544 1.544 0 0 1-1.482-1.105c-.602-2.034-4.126-8.276-9.271-11.643a16.672 16.672 0 0 0-3.219-1.634 1.537 1.537 0 0 1-.894-1.984 1.547 1.547 0 0 1 1.993-.889 19.776 19.776 0 0 1 3.816 1.937c5.776 3.778 9.714 10.555 10.538 13.345a1.536 1.536 0 0 1-1.046 1.909 1.493 1.493 0 0 1-.435.064z" fill="#3F4447" data-color="1"/>
        <path d="M113.816 61.933c-.251 0-.506-.062-.743-.192a1.533 1.533 0 0 1-.61-2.088 31.095 31.095 0 0 0 2.376-5.487c.813-2.52 1.926-5.968 1.333-9.781-.298-1.914-1.35-3.793-3.444-7.54-3.683-6.587-6.501-9.385-7.427-10.305-2.275-2.256-4.257-3.588-5.2-3.456-.25.045-1.053.536-1.829 1.011-.624.382-1.373.841-2.293 1.363-1.169.666-2.322 1.322-2.654 2.25-.189.531-.126 1.243.186 2.058a1.535 1.535 0 0 1-.894 1.984 1.542 1.542 0 0 1-1.993-.889c-.578-1.507-.65-2.955-.21-4.185.716-2.001 2.602-3.074 3.978-3.857.939-.534 1.66-.976 2.262-1.343 1.395-.854 2.236-1.37 3.165-1.455 1.283-.127 3.494.204 7.665 4.342 1.001.996 4.05 4.024 7.943 10.987 2.273 4.065 3.415 6.106 3.799 8.564.704 4.532-.588 8.539-1.445 11.191a34.047 34.047 0 0 1-2.61 6.029c-.28.51-.81.799-1.355.799z" fill="#3F4447" data-color="1"/>
        <path d="M29.046 166.237a1.543 1.543 0 0 1-1.546-1.539v-61.684c0-.849.692-1.539 1.546-1.539.853 0 1.546.689 1.546 1.539v61.684a1.544 1.544 0 0 1-1.546 1.539z" fill="#3F4447" data-color="1"/>
        <path d="M71.62 92.729a1.543 1.543 0 0 1-1.546-1.539c0-.184.054-.449.117-.621 1.554-4.479 4.625-7.827 8.421-9.16 1.462-.517 2.949-.739 4.387-.955a39.43 39.43 0 0 0 2.086-.347c2.996-.609 6.632-1.989 7.849-4.035.431-.723.506-1.46.24-2.323a1.536 1.536 0 0 1 1.023-1.922 1.543 1.543 0 0 1 1.931 1.018c.52 1.677.334 3.336-.535 4.796-2.122 3.563-7.623 5.02-9.89 5.48-.744.15-1.494.264-2.245.375-1.353.202-2.63.394-3.814.811-2.89 1.016-5.263 3.65-6.52 7.233a1.54 1.54 0 0 1-1.504 1.189z" fill="#3F4447" data-color="1"/>
        <path d="M102.013 107.226h-.677c-11.459-.047-24.311-1.315-32.744-3.231a1.534 1.534 0 0 1-1.162-1.846l1.98-8.524a18.21 18.21 0 0 1 .749-2.937 1.55 1.55 0 0 1 1.965-.951 1.537 1.537 0 0 1 .956 1.956c-.275.789-.49 1.642-.64 2.535l-1.646 7.096c8.134 1.662 20.143 2.784 30.556 2.825 9.63.115 20.851-.836 28.893-2.261l-2.106-10.493c-1.199-3.409-3.583-6.064-6.483-7.084-1.187-.419-2.464-.611-3.817-.813-.751-.112-1.5-.225-2.243-.375-2.268-.461-7.769-1.917-9.891-5.48-.868-1.46-1.055-3.119-.535-4.796a1.543 1.543 0 0 1 1.931-1.018 1.537 1.537 0 0 1 1.023 1.922c-.267.863-.191 1.6.24 2.323 1.217 2.046 4.853 3.426 7.851 4.035.687.14 1.386.244 2.084.347 1.438.215 2.925.437 4.391.956 3.791 1.332 6.862 4.678 8.426 9.18l2.466 12.221a1.54 1.54 0 0 1-1.217 1.809c-8.123 1.591-19.96 2.604-30.35 2.604z" fill="#3F4447" data-color="1"/>
        <path d="M170.954 166.237a1.544 1.544 0 0 1-1.546-1.524l-.627-60.973a1.544 1.544 0 0 1 1.531-1.554c.756-.14 1.551.674 1.561 1.524l.627 60.973a1.544 1.544 0 0 1-1.531 1.554h-.015z" fill="#3F4447" data-color="1"/>
        <path d="M45.918 166.237a1.543 1.543 0 0 1-1.546-1.539v-52.075c0-.849.692-1.539 1.546-1.539s1.546.689 1.546 1.539v52.075c0 .85-.693 1.539-1.546 1.539z" fill="#3F4447" data-color="1"/>
        <path d="M66.896 178.064a1.543 1.543 0 0 1-1.546-1.539v-51.112c0-.849.692-1.539 1.546-1.539.853 0 1.546.689 1.546 1.539v51.112c0 .85-.693 1.539-1.546 1.539z" fill="#3F4447" data-color="1"/>
        <path d="M89.671 170.663a1.543 1.543 0 0 1-1.546-1.539v-51.797c0-.849.692-1.539 1.546-1.539.853 0 1.546.689 1.546 1.539v51.797c0 .85-.693 1.539-1.546 1.539z" fill="#3F4447" data-color="1"/>
        <path d="M112.143 178.286a1.543 1.543 0 0 1-1.546-1.539v-47.701c0-.849.692-1.539 1.546-1.539.853 0 1.546.689 1.546 1.539v47.701c0 .85-.693 1.539-1.546 1.539z" fill="#3F4447" data-color="1"/>
        <path d="M133.096 162.175a1.543 1.543 0 0 1-1.546-1.539v-44.748c0-.849.692-1.539 1.546-1.539.853 0 1.546.689 1.546 1.539v44.748a1.544 1.544 0 0 1-1.546 1.539z" fill="#3F4447" data-color="1"/>
        <path d="M153.453 175.277a1.543 1.543 0 0 1-1.546-1.539v-48.325c0-.849.692-1.539 1.546-1.539s1.546.689 1.546 1.539v48.325c0 .85-.692 1.539-1.546 1.539z" fill="#3F4447" data-color="1"/>
        <path d="M79.892 105.252a1.538 1.538 0 0 1-1.433-2.115l1.531-3.773a1.568 1.568 0 0 1 1.551-.958 1.54 1.54 0 0 1 1.386 1.178l.899 3.773a1.546 1.546 0 0 1-2.718 1.306 1.553 1.553 0 0 1-1.216.589z" fill="#3F4447" data-color="1"/>
        <path d="M119.345 105.252c-.469 0-.92-.215-1.215-.587a1.553 1.553 0 0 1-1.571.546 1.54 1.54 0 0 1-1.147-1.852l.899-3.773a1.543 1.543 0 0 1 1.386-1.178c.701-.043 1.299.337 1.551.958l1.531 3.773a1.538 1.538 0 0 1-1.434 2.113z" fill="#3F4447" data-color="1"/>
        <path d="M132.061 104.651a1.538 1.538 0 0 1-.299-3.047c3.539-.698 5.382-1.315 6.322-1.729-.664-.262-1.765-.612-3.569-1.001a1.54 1.54 0 0 1-1.182-1.831 1.548 1.548 0 0 1 1.839-1.177c4.88 1.056 6.781 2.169 6.781 3.97 0 1.737-1.631 3.216-9.591 4.784-.1.021-.202.031-.301.031zm6.976-4.282h.034-.034z" fill="#3F4447" data-color="1"/>
        <path d="M68.938 104.036c-.116 0-.231-.013-.349-.04-6.019-1.38-8.475-2.76-8.475-4.764.027-2.109 2.825-3.102 5.561-3.798a1.557 1.557 0 0 1 1.879 1.11 1.538 1.538 0 0 1-1.115 1.871c-1.323.337-2.143.634-2.642.859.776.394 2.354 1.008 5.485 1.726a1.536 1.536 0 0 1-.344 3.036z" fill="#3F4447" data-color="1"/>
        <path d="M99.745 102.552c-.01 0-.022 0-.032-.002a1.546 1.546 0 0 1-1.402-.961 4.492 4.492 0 0 0-.848-1.353 4.553 4.553 0 0 0-1.812-1.2 1.54 1.54 0 0 1-.927-1.971 1.551 1.551 0 0 1 1.98-.923 7.654 7.654 0 0 1 3.031 2.008l.131-.155a9.976 9.976 0 0 1 3.335-2.505 1.545 1.545 0 0 1 2.055.743c.36.769.029 1.684-.744 2.044a6.85 6.85 0 0 0-2.307 1.729 6.747 6.747 0 0 0-1.051 1.642c-.252.55-.804.904-1.409.904z" fill="#3F4447" data-color="1"/>
        <path d="M99.536 118.931c-3.502 0-6.944-.048-10.314-.145-7.957-.225-15.606-.709-22.737-1.435-8.04-.824-15.114-1.926-21.025-3.276-12.086-2.764-17.96-6.15-17.96-10.35 0-7.111 18.353-10.944 33.748-12.908a1.536 1.536 0 0 1 1.728 1.33 1.54 1.54 0 0 1-1.336 1.721c-24.561 3.134-31.049 7.818-31.049 9.858 0 1.751 4.074 4.726 15.56 7.353 5.787 1.32 12.736 2.401 20.649 3.212 7.055.719 14.627 1.198 22.51 1.422 7.284.214 15.015.184 22.227-.06 7.234-.235 14.2-.693 20.706-1.362 7.735-.796 14.48-1.834 20.042-3.082 12.054-2.66 15.082-5.452 15.824-6.528.24-.349.357-.664.357-.955 0-1.988-6.062-6.568-29.008-9.682a1.538 1.538 0 1 1 .419-3.047c14.451 1.961 31.681 5.762 31.681 12.73 0 .916-.302 1.821-.897 2.692-2.101 3.044-8.054 5.664-17.7 7.793-5.678 1.275-12.544 2.331-20.4 3.141-6.58.676-13.618 1.138-20.923 1.375-3.935.13-7.97.203-12.102.203z" fill="#3F4447" data-color="1"/>
        <path d="M100.007 180c-3.521 0-6.991-.052-10.383-.154-8.019-.227-15.72-.714-22.889-1.445l-1.227-.127c-7.564-.806-14.265-1.871-19.937-3.166-4.304-.985-7.925-2.086-10.766-3.274a1.75 1.75 0 0 1-.144-.07c-4.817-2.073-7.16-4.386-7.16-7.066 0-.849.692-1.539 1.546-1.539.853 0 1.546.689 1.546 1.539 0 1.245 2.02 2.849 5.407 4.291h-.002c.04.017.077.035.114.055 2.664 1.103 6.077 2.134 10.153 3.067 5.551 1.267 12.131 2.311 19.553 3.102l1.217.125c7.11.726 14.736 1.208 22.681 1.434 7.338.22 15.11.192 22.374-.065 7.289-.237 14.302-.696 20.847-1.367.389-.037.768-.073 1.147-.124 7.343-.784 13.734-1.786 19.033-2.979 3.963-.876 7.289-1.837 9.891-2.859 3.938-1.53 5.46-2.865 6.044-3.715.24-.352.357-.669.357-.966 0-.849.692-1.539 1.546-1.539s1.546.689 1.546 1.539c0 .921-.302 1.829-.895 2.698-1.227 1.786-3.67 3.369-7.469 4.846-2.746 1.078-6.228 2.086-10.344 2.997-5.408 1.218-11.918 2.238-19.343 3.031-.379.05-.791.09-1.205.13-6.607.676-13.692 1.141-21.048 1.38-3.969.143-8.029.221-12.19.221z" fill="#3F4447" data-color="1"/>
    </g>
</svg>
