<?xml version="1.0" encoding="UTF-8"?>
<svg data-bbox="41 20 118 160.486" viewBox="0 0 200 200" height="200" width="200" xmlns="http://www.w3.org/2000/svg" data-type="color">
    <g>
        <path d="M61.324 75.941c-6.006 4.099-11.333 9.59-14.214 16.35-1.395 3.274-2.169 6.813-2.079 10.381.093 3.718 1.133 7.323 2.419 10.787 2.628 7.078 6.843 14.507 5.393 22.321-1.34 7.218-6.81 13.031-7.573 20.409-.431 4.165 1.205 8.009 2.781 11.766 1.58 3.768 3.28 7.852 1.715 11.908-.24.621.759.89.997.275 2.642-6.845-3.024-13.341-4.282-19.843-1.452-7.504 3.896-13.943 6.339-20.61 1.231-3.359 1.61-6.818 1.093-10.361-.535-3.668-1.878-7.157-3.256-10.577-2.866-7.114-5.84-14.273-3.936-22.057 2.037-8.325 8.198-15.128 15.126-19.856.545-.373.029-1.27-.523-.893z" fill="#1D1D1B" data-color="1"/>
        <path d="M64.36 74.054a46.96 46.96 0 0 0-3.036 1.887c-.224.151-.343.462-.185.707.144.223.468.347.707.185.988-.667 2-1.297 3.036-1.887.235-.134.336-.474.185-.707a.527.527 0 0 0-.707-.185z" fill="#1D1D1B" data-color="1"/>
        <path d="M47.937 43.025c3.498 1.649 6.228-1.578 8.095-4.093 1.266-1.705 2.673-3.061 4.653-3.887 1.576-.658 3.271-.988 4.95-1.258 3.379-.544 6.945-.801 9.996-2.496 1.65-.916 2.955-2.281 4.393-3.478 1.364-1.135 2.868-1.799 4.595-2.192 3.646-.83 7.814-.708 11.363.503.631.215.902-.783.275-.997-2.925-.997-6.184-1.208-9.245-.918-3.234.306-5.905 1.267-8.35 3.417-1.549 1.362-3.045 2.688-4.993 3.446-1.587.618-3.274.943-4.95 1.211-3.272.521-6.752.766-9.701 2.422-1.68.944-2.874 2.345-4.004 3.876-1.44 1.95-3.76 4.867-6.553 3.55-.6-.281-1.126.61-.524.894z" fill="#1D1D1B" data-color="1"/>
        <path d="M96.465 102.265c-.655-4.178 3.723-6.744 6.917-8.233 2.981-1.39 5.876-2.75 7.726-5.597 1.667-2.565 2.423-5.817 4.627-8.016 2.497-2.49 6.276-1.346 8.993-3.297 1.559-1.119 2.248-3.129 3.28-4.682 1.332-2.004 2.928-3.798 4.719-5.401.497-.445-.236-1.174-.731-.731a29.488 29.488 0 0 0-4.141 4.55 27.953 27.953 0 0 0-1.647 2.525c-.562.971-1.026 2.056-1.922 2.774-1.42 1.136-3.418 1.139-5.128 1.467-1.525.293-2.914.872-4.046 1.957-2.242 2.148-3.068 5.32-4.636 7.917-2.098 3.477-5.756 4.64-9.181 6.401-3.233 1.663-6.446 4.684-5.826 8.642.102.654 1.098.376.996-.276z" fill="#1D1D1B" data-color="1"/>
        <path fill="#C9C7FB" d="M49.174 87.003l-1.034-6.2-5.635 6.562 5.428 1.188 2.637 6.871 4.968-8.999-6.364.578z" data-color="2"/>
        <path fill="#C9C7FB" d="M46.287 101.007l-4.368-4.127-.919 8.035 4.49-2.927 5.682 5.877-1.067-8.979-3.818 2.121z" data-color="2"/>
        <path fill="#C9C7FB" d="M48.967 115.522l-7.803.561 3.61 7.237 4.193-5.525 6.618 1.137-3.73-6.587-2.888 3.177z" data-color="2"/>
        <path d="M118.889 81.891a2.858 2.858 0 0 1-4.028 0 2.857 2.857 0 0 1 0-4.03 2.857 2.857 0 0 1 4.027 0 2.856 2.856 0 0 1 .001 4.03z" fill="#7D7DE2" data-color="3"/>
        <path fill="#FC6125" d="M159 20l-39.719 32.698-22.631-31L159 20z" data-color="4"/>
        <path fill="#FFBD99" d="M133.702 66.803L159 20l-39.719 32.698 14.421 14.105z" data-color="5"/>
        <path fill="#FFBD99" d="M62.69 75.566l33.96-53.868 22.631 31L62.69 75.566z" data-color="5"/>
        <path fill="#FC6125" d="M133.702 66.803L62.69 75.566l56.591-22.868 14.421 14.105z" data-color="4"/>
        <path d="M113.822 88.814a2.858 2.858 0 0 1-4.028 0 2.857 2.857 0 0 1 0-4.03 2.857 2.857 0 0 1 4.027 0 2.856 2.856 0 0 1 .001 4.03z" fill="#7D7DE2" data-color="3"/>
        <path d="M106.067 94.6a2.858 2.858 0 0 1-4.028 0 2.857 2.857 0 0 1 0-4.03 2.857 2.857 0 0 1 4.027 0 2.856 2.856 0 0 1 .001 4.03z" fill="#7D7DE2" data-color="3"/>
        <path d="M67.05 35.599a2.858 2.858 0 0 1-4.028 0 2.857 2.857 0 0 1 0-4.03 2.857 2.857 0 0 1 4.027 0 2.854 2.854 0 0 1 .001 4.03z" fill="#7D7DE2" data-color="3"/>
        <path d="M76.46 33.223a2.858 2.858 0 0 1-4.028 0 2.857 2.857 0 0 1 0-4.03 2.857 2.857 0 0 1 4.027 0 2.856 2.856 0 0 1 .001 4.03z" fill="#7D7DE2" data-color="3"/>
        <path d="M85.973 27.023a2.858 2.858 0 0 1-4.028 0 2.857 2.857 0 0 1 0-4.03 2.857 2.857 0 0 1 4.027 0 2.856 2.856 0 0 1 .001 4.03z" fill="#7D7DE2" data-color="3"/>
    </g>
</svg>
