<svg data-bbox="34 13.884 132 172.116" viewBox="0 0 200 200" height="200" width="200" xmlns="http://www.w3.org/2000/svg" data-type="color">
    <g>
        <path d="M95.1 186H79.7C53.6 186 34 167.4 34 142.8v-34.6c0-4.5 3.4-7.9 7.8-7.9h91.1c4.3 0 7.8 3.6 7.8 7.9v34.6c.1 24.6-19.6 43.2-45.6 43.2zm-53.3-78.8c-.7 0-1 .3-1 1v34.6c0 20.7 16.7 36.3 38.9 36.3H95c22.2 0 38.9-15.6 38.9-36.3v-34.6c0-.5-.5-1-1-1H41.8z" fill="#c09949" data-color="1"/>
        <path d="M142.8 162.4h-10v-6.9h10c8.9 0 16.4-7.8 16.4-17.1s-7.5-17.1-16.4-17.1h-7.2v-6.9h7.2c12.6 0 23.2 11 23.2 24s-10.6 24-23.2 24z" fill="#c09949" data-color="1"/>
        <path d="M95.1 87.7c-.9 0-1.8-.4-2.5-1.1-8.4-8.9-3.9-20.2 0-30.3 4.8-12.1 6.2-17.9-.4-22-1.6-1-2.1-3.1-1.1-4.7s3.1-2.1 4.7-1.1C108 36.1 103 48.7 99 58.9c-4.1 10.5-6.5 17.7-1.4 23 1.3 1.4 1.3 3.5-.1 4.8-.8.7-1.6 1-2.4 1z" fill="#c09949" data-color="1"/>
        <path d="M75.3 73.6c-.9 0-1.8-.4-2.5-1.1-8.4-8.9-3.9-20.2 0-30.3 4.8-12.1 6.2-17.9-.4-22-1.6-1-2.1-3.1-1.1-4.7s3.1-2.1 4.7-1.1c12.1 7.5 7.1 20.2 3.1 30.3-4.1 10.5-6.5 17.7-1.4 23 1.3 1.4 1.3 3.5-.1 4.8-.6.8-1.5 1.1-2.3 1.1z" fill="#c09949" data-color="1"/>
    </g>
</svg>
