<svg data-bbox="40.501 30.999 118.999 138.001" viewBox="0 0 200 200" height="200" width="200" xmlns="http://www.w3.org/2000/svg" data-type="color">
    <g>
        <path fill="#FFFD6E" d="M60.064 148.028V169h-6.501v-20.972h6.501z" data-color="1"/>
        <path fill="#FFFD6E" d="M155.379 148.028V169h-6.501v-20.972h6.501z" data-color="1"/>
        <path d="M89.349 63.778c-.739 0-1.455-.352-1.842-.978-.568-.918-.204-2.079.809-2.594 1.612-.818 4.936-3.142 4.936-5.107 0-.618-1.048-1.18-2.643-1.967-2.129-1.048-5.044-2.484-5.044-5.61 0-5.351 6.569-8.127 6.849-8.243 1.052-.442 2.308-.015 2.791.942.484.956.021 2.086-1.035 2.525-.082.035-4.389 1.941-4.389 4.775 0 .74.838 1.273 2.843 2.26 2.044 1.007 4.844 2.386 4.844 5.317 0 4.728-6.371 8.073-7.098 8.439a2.267 2.267 0 0 1-1.021.241z" fill="#B2D5FA" data-color="2"/>
        <path d="M102.309 63.778c-.739 0-1.455-.352-1.842-.977-.568-.918-.204-2.079.809-2.594 1.61-.819 4.932-3.143 4.932-5.108 0-.618-1.048-1.18-2.643-1.967-2.128-1.048-5.043-2.484-5.043-5.61 0-5.351 6.573-8.127 6.853-8.243 1.062-.442 2.31-.016 2.793.943.482.956.019 2.084-1.038 2.524-.049.021-4.393 1.93-4.393 4.775 0 .74.838 1.273 2.843 2.26 2.044 1.007 4.844 2.386 4.844 5.317 0 4.728-6.367 8.073-7.094 8.438a2.244 2.244 0 0 1-1.021.242z" fill="#B2D5FA" data-color="2"/>
        <path d="M115.266 63.778c-.739 0-1.455-.352-1.842-.978-.568-.918-.204-2.079.809-2.594 1.612-.818 4.936-3.142 4.936-5.107 0-.618-1.048-1.18-2.643-1.967-2.129-1.048-5.044-2.484-5.044-5.61 0-5.351 6.569-8.127 6.849-8.243 1.054-.442 2.308-.015 2.791.942.484.956.021 2.086-1.035 2.525-.082.035-4.389 1.941-4.389 4.775 0 .74.838 1.273 2.843 2.26 2.044 1.007 4.844 2.386 4.844 5.317 0 4.728-6.371 8.073-7.098 8.439a2.261 2.261 0 0 1-1.021.241z" fill="#B2D5FA" data-color="2"/>
        <path d="M146.873 69.69c0 21.184-18.988 38.357-42.402 38.357-23.41 0-42.394-17.173-42.394-38.357h84.796z" fill="#FFFD6E" data-color="1"/>
        <path d="M62.077 76.663H51.558c-1.165 0-2.108-.854-2.108-1.907s.943-1.907 2.108-1.907h10.519c1.165 0 2.108.854 2.108 1.907s-.943 1.907-2.108 1.907z" fill="#ED9D9D" data-color="3"/>
        <path d="M157.392 76.663h-10.519c-1.165 0-2.108-.854-2.108-1.907s.943-1.907 2.108-1.907h10.519c1.165 0 2.108.854 2.108 1.907s-.943 1.907-2.108 1.907z" fill="#ED9D9D" data-color="3"/>
        <path d="M104.471 150.33c-1.165 0-2.108-.854-2.108-1.907v-40.377c0-1.053.943-1.907 2.108-1.907s2.108.854 2.108 1.907v40.377c0 1.053-.943 1.907-2.108 1.907z" fill="#ED9D9D" data-color="3"/>
        <path d="M150.156 158.514c0 1.049-.949 1.907-2.108 1.907h-7.863l.569 1.411c.401.992-.169 2.079-1.265 2.441a2.355 2.355 0 0 1-.717.114c-.864 0-1.665-.477-1.981-1.24l-1.096-2.727h-63.66l-1.096 2.727c-.316.763-1.138 1.24-1.981 1.24-.253 0-.485-.038-.738-.114-1.096-.362-1.644-1.45-1.244-2.441l.569-1.411h-6.64c-1.159 0-2.108-.858-2.108-1.907s.949-1.907 2.108-1.907h8.179l19.709-48.653c.401-.992 1.602-1.507 2.698-1.144 1.096.362 1.665 1.469 1.265 2.46l-19.161 47.337h60.541l-19.161-47.337c-.401-.992.169-2.098 1.265-2.46 1.075-.362 2.298.153 2.698 1.144l19.709 48.653h9.402c1.159 0 2.107.858 2.107 1.907z" fill="#ED9D9D" data-color="3"/>
        <path d="M51.103 138.011H44.61c-1.18 0-2.108.858-2.108 1.907v20.979c0 1.049.928 1.907 2.108 1.907h6.493c1.159 0 2.108-.858 2.108-1.907v-20.979c0-1.048-.949-1.907-2.108-1.907zm-2.108 20.98h-2.277v-17.165h2.277v17.165z" fill="#455B65" data-color="4"/>
        <path d="M80.39 55.672c-.739 0-1.455-.352-1.842-.978-.568-.918-.204-2.079.809-2.594 1.612-.818 4.936-3.142 4.936-5.107 0-.618-1.048-1.18-2.643-1.967-2.129-1.048-5.044-2.484-5.044-5.61 0-5.351 6.569-8.127 6.849-8.243 1.054-.44 2.308-.016 2.791.942.484.956.021 2.086-1.035 2.525-.082.035-4.389 1.941-4.389 4.775 0 .74.838 1.273 2.843 2.26 2.044 1.007 4.844 2.386 4.844 5.317 0 4.728-6.371 8.073-7.098 8.439a2.261 2.261 0 0 1-1.021.241z" fill="#455B65" data-color="4"/>
        <path d="M93.35 55.672c-.739 0-1.455-.352-1.842-.977-.568-.918-.204-2.079.809-2.594 1.61-.819 4.932-3.143 4.932-5.108 0-.618-1.048-1.18-2.643-1.967-2.128-1.048-5.043-2.484-5.043-5.61 0-5.351 6.573-8.127 6.853-8.243 1.06-.44 2.31-.016 2.793.943.482.956.019 2.084-1.038 2.524-.049.021-4.393 1.93-4.393 4.775 0 .74.838 1.273 2.843 2.26 2.044 1.007 4.844 2.386 4.844 5.317 0 4.728-6.367 8.073-7.094 8.438a2.244 2.244 0 0 1-1.021.242z" fill="#455B65" data-color="4"/>
        <path d="M106.307 55.672c-.739 0-1.455-.352-1.842-.978-.568-.918-.204-2.079.809-2.594 1.612-.818 4.936-3.142 4.936-5.107 0-.618-1.048-1.18-2.643-1.967-2.129-1.048-5.044-2.484-5.044-5.61 0-5.351 6.569-8.127 6.849-8.243 1.052-.44 2.308-.016 2.791.942.484.956.021 2.086-1.035 2.525-.082.035-4.389 1.941-4.389 4.775 0 .74.838 1.273 2.843 2.26 2.044 1.007 4.844 2.386 4.844 5.317 0 4.728-6.371 8.073-7.098 8.439a2.261 2.261 0 0 1-1.021.241z" fill="#455B65" data-color="4"/>
        <path d="M139.342 68.55h9.085c1.18 0 2.108-.839 2.108-1.907 0-1.049-.928-1.907-2.108-1.907h-8.558c.105-1.03.148-2.079.148-3.147 0-1.049-.928-1.907-2.108-1.907H53.127c-1.18 0-2.108.858-2.108 1.907 0 1.068.042 2.117.148 3.147h-8.558c-1.18 0-2.108.858-2.108 1.907 0 1.068.928 1.907 2.108 1.907h9.085c2.909 15.029 15.051 27.216 30.924 31.564L63.035 148.5h-9.823v3.814h8.284l-.569 1.411c-.401.992.148 2.079 1.244 2.441.253.076.485.114.738.114.843 0 1.665-.477 1.981-1.24l1.096-2.727h60.751l1.096 2.727c.316.763 1.117 1.24 1.981 1.24.232 0 .485-.038.717-.114 1.096-.362 1.665-1.45 1.265-2.441l-.569-1.411h6.577v8.582c0 1.049.949 1.907 2.108 1.907h6.514c1.159 0 2.108-.858 2.108-1.907v-20.979c0-1.049-.949-1.907-2.108-1.907h-6.514c-1.159 0-2.108.858-2.108 1.907v8.582h-8.116l-19.709-48.653a.665.665 0 0 0-.084-.172c15.155-4.67 26.644-16.572 29.447-31.124zm2.677 73.276h2.298v17.165h-2.298v-17.165zm-16.842 6.675H67.545l19.14-47.337a.22.22 0 0 0 .021-.114c2.171.4 4.406.667 6.703.744v38.526c0 1.049.928 1.907 2.108 1.907 1.159 0 2.108-.858 2.108-1.907v-38.526a47.098 47.098 0 0 0 8.284-1.068c.021.153.042.305.105.439l19.163 47.336zM95.518 98.036c-21.522 0-39.145-15.334-40.241-34.54h80.482c-1.118 19.206-18.74 34.54-40.241 34.54z" fill="#455B65" data-color="4"/>
    </g>
</svg>
