<?xml version="1.0" encoding="UTF-8"?>
<svg data-bbox="20 23.003 160 153.997" viewBox="0 0 200 200" height="200" width="200" xmlns="http://www.w3.org/2000/svg" data-type="color">
    <g>
        <path d="M127.863 154.593H29.535c-5.257 0-9.535-4.303-9.535-9.592 0-5.289 4.278-9.59 9.535-9.59h95.148l40.061-30.219c4.199-3.167 10.193-2.313 13.352 1.916 3.156 4.234 2.298 10.257-1.908 13.429l-42.603 32.137a9.574 9.574 0 0 1-5.722 1.919zm-98.328-13.86c-2.339 0-4.244 1.914-4.244 4.269 0 2.354 1.905 4.27 4.244 4.27h98.328c.909 0 1.816-.303 2.546-.856l42.603-32.137a4.287 4.287 0 0 0 .851-5.976 4.24 4.24 0 0 0-5.942-.854l-40.767 30.753a2.641 2.641 0 0 1-1.588.532H29.535z" fill="#266040" data-color="1"/>
        <path d="M29.966 177a2.63 2.63 0 0 1-1.871-.779 2.67 2.67 0 0 1 0-3.763l22.282-22.407a2.635 2.635 0 0 1 3.741 0 2.669 2.669 0 0 1 0 3.762L31.836 176.22c-.516.52-1.192.78-1.87.78z" fill="#266040" data-color="1"/>
        <path d="M149.866 177a2.63 2.63 0 0 1-1.871-.779l-22.282-22.407a2.67 2.67 0 0 1 0-3.762 2.635 2.635 0 0 1 3.741 0l22.282 22.407a2.67 2.67 0 0 1 0 3.763 2.63 2.63 0 0 1-1.87.778z" fill="#266040" data-color="1"/>
        <path d="M38.523 99.771a2.645 2.645 0 0 1-2.535-1.904c-4.258-14.437-2.673-29.676 4.468-42.91 7.138-13.235 18.978-22.882 33.333-27.164 29.64-8.837 60.885 8.221 69.673 38.015.2.677.124 1.405-.21 2.025s-.899 1.083-1.574 1.284L39.274 99.662a2.6 2.6 0 0 1-.751.109zM89.7 30.783c-4.767 0-9.611.681-14.41 2.113-12.998 3.877-23.718 12.613-30.184 24.598-6.042 11.203-7.692 23.99-4.733 36.29l97.198-28.995c-7.283-20.718-26.822-34.006-47.871-34.006z" fill="#266040" data-color="1"/>
        <path d="M62.138 92.726c-.438 0-.872-.109-1.261-.322a2.662 2.662 0 0 1-1.275-1.582c-4.178-14.17-5.143-28.42-2.711-40.121 2.549-12.284 8.55-20.419 16.897-22.908 8.33-2.488 17.783 1.039 26.581 9.938 8.381 8.48 15.299 20.952 19.477 35.12.2.678.124 1.405-.21 2.025a2.64 2.64 0 0 1-1.574 1.284L62.889 92.617a2.64 2.64 0 0 1-.751.109zm17.007-60.384c-1.323 0-2.611.182-3.855.554-6.39 1.905-11.086 8.615-13.222 18.892-2.108 10.16-1.433 22.483 1.888 34.959l50.03-14.923c-3.979-12.278-10.093-22.979-17.369-30.341-5.928-5.997-11.998-9.141-17.472-9.141z" fill="#266040" data-color="1"/>
        <path d="M105.396 137.644a2.647 2.647 0 0 1-2.536-1.904L70.623 26.42a2.662 2.662 0 0 1 1.785-3.309 2.643 2.643 0 0 1 3.286 1.795l32.237 109.321a2.663 2.663 0 0 1-1.784 3.309 2.638 2.638 0 0 1-.751.108z" fill="#266040" data-color="1"/>
    </g>
</svg>
