<svg data-bbox="17.1 30.4 166 139.1" viewBox="0 0 200 200" xmlns="http://www.w3.org/2000/svg" data-type="color">
    <g>
        <path d="M180.5 130.6c-7.4 0-11.1 2.3-14.5 4.3-3.3 1.9-6.3 3.7-12.3 3.7-6.1 0-9.1-1.8-12.3-3.7-3.9-2.3-7.7-4.3-14.5-4.3-7.4 0-11.1 2.3-14.5 4.3-3.3 1.9-6.3 3.7-12.3 3.7-6.1 0-9.1-1.8-12.3-3.7-3.9-2.3-7.7-4.3-14.5-4.3-7.4 0-11.1 2.3-14.5 4.3-3.3 1.9-6.3 3.7-12.3 3.7-6.1 0-9.1-1.8-12.3-3.7-3.9-2.3-7.7-4.3-14.5-4.3-1.1 0-2.2 1.1-2.2 2.2s1.1 2.2 2.2 2.2c6.1 0 9.1 1.8 12.3 3.7 3.9 2.3 7.7 4.3 14.5 4.3 7.4 0 11.1-2.3 14.5-4.3 3.3-1.9 6.3-3.7 12.3-3.7 6.1 0 9.1 1.8 12.3 3.7 3.9 2.3 7.7 4.3 14.5 4.3 7.4 0 11.1-2.3 14.5-4.3l.4-.2c3.1-1.8 5.9-3.4 12-3.4s9.1 1.8 12.3 3.7c3.9 2.3 7.7 4.3 14.5 4.3 7.4 0 11.1-2.3 14.5-4.3 3.3-1.9 6.3-3.7 12.3-3.7 1.1 0 2.2-1.1 2.2-2.2s-1.3-2.3-2.3-2.3z" fill="#6a528c" data-color="1"/>
        <path d="M19.3 121.9c6.1 0 9.1 1.8 12.3 3.7 3.9 2.3 7.7 4.3 14.5 4.3 7.4 0 11.1-2.3 14.5-4.3 3.3-1.9 6.3-3.7 12.3-3.7 6.1 0 9.1 1.8 12.3 3.7 3.9 2.3 7.7 4.3 14.5 4.3 7.4 0 11.1-2.3 14.5-4.3l.4-.2c3.1-1.8 5.9-3.4 12-3.4s9.1 1.8 12.3 3.7c3.9 2.3 7.7 4.3 14.5 4.3 7.4 0 11.1-2.3 14.5-4.3 3.3-1.9 6.3-3.7 12.3-3.7 1.1 0 2.2-1.1 2.2-2.2s-1.1-2.2-2.2-2.2c-7.4 0-11.1 2.3-14.5 4.3-3.3 1.9-6.3 3.7-12.3 3.7-6.1 0-9-1.8-12.2-3.7-3.9-2.3-7.9-4.3-14.2-4.3v-69c0-10-9.2-18.2-19.2-18.2-1.1 0-2.6 1.1-2.6 2.2s1.8 2.2 2.9 2.2c7.5 0 14.4 6.1 14.4 13.6v9H78.3v-8.8c0-9.7-7.8-16.6-18.4-16.6-1.1 0-2.3 1.1-2.3 2.2s1 2.2 2.1 2.2c3.8 0 7.5 1.2 9.7 3.1 2.7 2.4 4.3 5.5 4.3 8.9v69.3s-.5-.1-1.1-.1c-7.4 0-10.8 2.3-14.3 4.3-3.3 1.9-6.3 3.7-12.2 3.7-6.1 0-9.1-1.8-12.3-3.7-3.9-2.3-7.6-4.3-14.5-4.3-1.1 0-2.2 1.1-2.2 2.2s1.1 2.1 2.2 2.1zm59-59.9h44.4v17.1H78.3V62zm0 21.7h44.4v18.1H78.3V83.7zm0 22.5h44.4V118c-5.4.6-7.6 2.3-10.3 4.1-3.3 1.9-6.3 3.7-12.4 3.7s-9.4-1.8-12.7-3.7c-2.6-1.6-5.3-3-9-3.8v-12.1z" fill="#6a528c" data-color="1"/>
        <path d="M19.3 148.1c6.1 0 9.1 1.8 12.3 3.7 3.9 2.3 7.7 4.3 14.5 4.3 7.4 0 11.1-2.3 14.5-4.3 3.3-1.9 6.3-3.7 12.3-3.7 6.1 0 9.1 1.8 12.3 3.7 3.9 2.3 7.7 4.3 14.5 4.3 7.4 0 11.1-2.3 14.5-4.3l.4-.2c3.1-1.8 5.9-3.4 12-3.4s9.1 1.8 12.3 3.7c3.9 2.3 7.7 4.3 14.5 4.3 7.4 0 11.1-2.3 14.5-4.3 3.3-1.9 6.3-3.7 12.3-3.7 1.1 0 2.2-1.1 2.2-2.2s-1.1-2.2-2.2-2.2c-7.4 0-11.1 2.3-14.5 4.3-3.3 1.9-6.3 3.7-12.3 3.7-6.1 0-9.1-1.8-12.3-3.7-3.9-2.3-7.7-4.3-14.5-4.3-7.4 0-11.1 2.3-14.5 4.3-3.3 1.9-6.3 3.7-12.3 3.7-6.1 0-9.1-1.8-12.3-3.7-3.9-2.3-7.7-4.3-14.5-4.3-7.4 0-11.1 2.3-14.5 4.3-3.3 1.9-6.3 3.7-12.3 3.7-6.1 0-9.1-1.8-12.3-3.7-3.9-2.3-7.7-4.3-14.5-4.3-1.1 0-2.2 1.1-2.2 2.2-.1 1 1 2.1 2.1 2.1z" fill="#6a528c" data-color="1"/>
        <path d="M180.8 157c-7.4 0-11.1 2.3-14.5 4.3-3.3 1.9-6.3 3.7-12.3 3.7-6.1 0-9.1-1.8-12.3-3.7-3.9-2.3-7.7-4.3-14.5-4.3-7.4 0-11.1 2.3-14.5 4.3-3.3 1.9-6.3 3.7-12.3 3.7-6.1 0-9.1-1.8-12.3-3.7-3.9-2.3-7.7-4.3-14.5-4.3-7.4 0-11.1 2.3-14.5 4.3-3.3 1.9-6.3 3.7-12.3 3.7s-9.1-1.8-12.3-3.7C30.6 159 26.8 157 20 157c-1.1 0-2.2 1.1-2.2 2.2s1.1 2.2 2.2 2.2c6.1 0 9.1 1.8 12.3 3.7 3.9 2.3 7.7 4.3 14.5 4.3 7.4 0 11.1-2.3 14.5-4.3 3.3-1.9 6.3-3.7 12.3-3.7 6.1 0 9.1 1.8 12.3 3.7 3.9 2.3 7.7 4.3 14.5 4.3 7.4 0 11.1-2.3 14.5-4.3l.4-.2c3.1-1.8 5.9-3.4 12-3.4s9.1 1.8 12.3 3.7c3.9 2.3 7.7 4.3 14.5 4.3 7.4 0 11.1-2.3 14.5-4.3 3.3-1.9 6.3-3.7 12.3-3.7 1.1 0 2.2-1.1 2.2-2.2-.1-1.3-1.2-2.3-2.3-2.3z" fill="#6a528c" data-color="1"/>
    </g>
</svg>
