<?xml version="1.0" encoding="UTF-8"?>
<svg data-bbox="46.114 19.772 109.694 160.159" viewBox="0 0 200 200" height="200" width="200" xmlns="http://www.w3.org/2000/svg" data-type="color">
    <g>
        <path fill="#40664b" d="M102.31 63.586c.278.088.557.042.83-.016a13.6 13.6 0 0 1 4.053-.231c.994.089 1.996.055 2.986.248q1.007.198 1.949.577c.938.376 2.754 2.037 3.253 2.932.117.209.231.423.31.648.266.756.575 1.49.993 2.177.233.382.353.812.407 1.247.208 1.676-.017 3.269-.973 4.71-.891 1.343-1.938 2.55-3.213 3.536-.951.735-1.882 1.489-2.719 2.351-1.448 1.49-3.248 2.454-5.076 3.357-1.575.778-3.192 1.47-4.792 2.196-1.239.562-2.535.974-3.83 1.378-1.031.322-2.11.439-3.186.534-1.233.108-2.469.198-3.699.337q-1.074.12-2.153.129c-1.08.01-2.161-.002-3.238.056-.755.041-1.507.167-2.254.29-.313.052-.568.225-.784.501-.664.849-1.337 1.69-1.9 2.611-.513.839-1.162 1.517-2.098 1.892-.256.103-.484.276-.721.425-.397.249-.811.292-1.263.164-1.319-.375-2.538-.926-3.63-1.783-1.036-.814-2.135-1.549-3.215-2.307a8 8 0 0 0-.926-.552 381 381 0 0 0-3.301-1.702c-1.14-.582-2.237-1.238-3.32-1.919a17.4 17.4 0 0 1-2.832-2.207c-.131-.126-.31-.116-.414.029-1.223 1.697-2.881 2.994-4.217 4.587a57 57 0 0 1-1.664 1.891 2.9 2.9 0 0 0-.738 1.606c-.082.594-.18 1.189-.201 1.787-.03.886-.177 1.748-.401 2.6-.225.854-.37 1.716-.396 2.601-.031 1.038-.257 2.065-.193 3.11.015.239-.013.484.024.719.281 1.788.182 3.591.206 5.387.009.638.149 1.178.529 1.668.245.316.489.633.751.934.32.368.543.781.716 1.236.355.936.636 1.892.862 2.866.345 1.486.901 2.897 1.509 4.289.114.26.261.461.554.585 1.285.546 2.579 1.08 3.826 1.705.992.497 2.044.716 3.111.802 1.272.103 2.557.055 3.836.058.359 0 .514-.146.558-.488.036-.276.068-.558.051-.835-.097-1.613.157-3.179.514-4.749.378-1.661 1.028-3.187 1.91-4.63.695-1.136 1.542-2.137 2.587-2.969 1.911-1.521 3.741-3.129 5.384-4.943 1.052-1.161 2.267-2.139 3.518-3.073 1.076-.804 2.26-1.349 3.613-1.479a5.5 5.5 0 0 0 1.397-.314c.796-.295 1.63-.388 2.477-.337.68.041 1.35.055 2.024-.121.379-.099.794-.079 1.193-.076 2.039.016 4.08.011 6.117.077 1.599.052 3.187.224 4.693.845.516.212 1.061.352 1.585.544 1.055.387 2.05.893 2.964 1.551 1.751 1.262 3.507 2.517 5.251 3.788.872.635 1.726 1.297 2.585 1.95.651.495.642.477 1.345-.006.56-.385 1.133-.75 1.695-1.132 3.14-2.138 6.42-4.053 9.633-6.073a10.6 10.6 0 0 1 2.605-1.194 1.83 1.83 0 0 0 .969-.654c.663-.862 1.465-1.582 2.328-2.238q.479-.362.918-.77c.361-.336.764-.572 1.257-.643l-1.725 2.443c-.134.189-.36.318-.377.583.307.156.531-.062.753-.195a174 174 0 0 0 3.059-1.873c.288-.181.307-.315.182-.6a6.2 6.2 0 0 0-.873-1.424c-.377-.464-.779-.911-1.128-1.396-.797-1.107-1.746-2.068-2.725-3.013-1.319-1.274-2.666-2.524-3.863-3.921-1.665-1.943-3.204-3.975-4.492-6.191-.113-.195-.184-.447-.445-.527-.272.242-.067.519-.02.756a8.1 8.1 0 0 0 1.504 3.354c.651.859 1.312 1.706 2.094 2.456.892.856 1.756 1.741 2.624 2.621.7.709 1.384 1.434 2.085 2.142.505.51 1 1.033 1.545 1.498 1.141.975 2.005 2.157 2.716 3.464.038.069.091.152.08.22a.64.64 0 0 1-.132.302c-.028.034-.159.02-.217-.015a2 2 0 0 1-.674-.665c-.092-.074-.204-.134-.274-.226-.728-.958-1.561-1.819-2.423-2.655-.2-.194-.397-.4-.556-.627-.902-1.287-2.04-2.347-3.199-3.393a107 107 0 0 1-3.24-3.033c-.54-.53-1.028-1.12-1.495-1.717-.883-1.127-1.348-2.439-1.598-3.835-.184-1.028-.311-2.055-.053-3.093.098-.395.009-.782-.088-1.179a62 62 0 0 1-.735-3.396c-.086-.466-.083-.956-.064-1.433.047-1.2.214-2.375.612-3.525.339-.978.578-1.994.819-3.003.522-2.188 1.591-4.083 3.036-5.78.57-.669 1.14-1.336 1.822-1.904 1.049-.874 2.196-1.452 3.6-1.373.29.016.545-.053.79-.217.756-.507 1.624-.655 2.507-.713.638-.042 1.28-.021 1.918-.063.774-.05 1.513.131 2.246.316a4.2 4.2 0 0 1 1.695.863c.801.671 1.589 1.363 2.095 2.287.736 1.344 1.712 2.505 2.672 3.681a9.5 9.5 0 0 1 1.056 1.596 427 427 0 0 0 2.592 4.865c.535.988.992 2.002 1.283 3.091.154.578.344 1.149.551 1.711.529 1.432.526 2.9.306 4.378-.088.592-.254 1.171-.359 1.761a11.4 11.4 0 0 1-1.403 3.803c-.267.454-.438.93-.57 1.439a27.5 27.5 0 0 1-2.216 5.81c-.639 1.228-1.46 2.277-2.648 3.034-.706.45-1.346 1.003-2.034 1.484-.818.573-1.655 1.119-2.483 1.677-.222.15-.306.347-.233.617.425 1.581.803 3.176 1.276 4.743.546 1.805 1.373 3.493 2.341 5.11.061.103.121.208.196.301.974 1.223 1.782 2.558 2.593 3.889.281.461.617.828 1.119 1.035 1.103.455 1.95 1.233 2.7 2.135.307.369.616.736.938 1.092a9.1 9.1 0 0 1 1.611 2.511c.701 1.614 1.384 3.233 1.735 4.969.286 1.414.466 2.834.417 4.286-.047 1.399-.074 2.798-.306 4.181-.097.578.017 1.09.271 1.617.452.933.858 1.889 1.253 2.849.522 1.268.786 2.598.842 3.967.037.919.078 1.838.083 2.758.005.959-.031 1.918-.05 2.877-.002.08-.019.16-.016.239.064 1.609-.225 3.185-.445 4.768a7 7 0 0 1-.134.706c-.257 1.047-.5 2.099-.789 3.137-.16.575-.394 1.13-.602 1.691-.305.824-.598 1.653-.934 2.464a2.27 2.27 0 0 0-.116 1.406c.231 1.056.34 2.127.439 3.202.076.834.209 1.665.355 2.49.304 1.719.282 3.437-.172 5.112-.391 1.44-1.156 2.717-2.134 3.851a60 60 0 0 1-1.698 1.86 7.7 7.7 0 0 1-1.991 1.527c-1.587.85-3.21 1.599-4.975 2.035a7.2 7.2 0 0 1-2.373.167c-.477-.04-.953-.116-1.422-.215-.901-.19-1.788-.429-2.567-.955-.165-.112-.341-.209-.516-.306-.803-.444-1.609-.841-2.543-.99-1.063-.169-2.086-.523-3.08-.956a7.5 7.5 0 0 1-1.814-1.145c-1.628-1.357-3.281-2.682-4.926-4.017-.215-.174-.331-.174-.537-.039q-1.603 1.051-3.207 2.1a12 12 0 0 0-2.021 1.688 6.3 6.3 0 0 1-1.414 1.101c-.669.379-1.363.674-2.143.688a1.37 1.37 0 0 0-1.052.477c-.212.235-.48.42-.728.62-.381.307-.824.474-1.295.593-.814.207-1.496.014-2.063-.609-.406-.447-.781-.923-1.011-1.479-.301-.728-.813-1.268-1.387-1.775-.198-.174-.407-.266-.653-.187-.708.229-1.411.221-2.125.025-.437-.12-.852-.058-1.281.125a4.9 4.9 0 0 1-2.465.353 3.2 3.2 0 0 0-.837.01c-1.106.176-2.234.108-3.339.331-.458.092-.959.037-1.431-.026a15 15 0 0 0-2.033-.115c-.96.002-1.92-.029-2.879-.016-1.125.015-2.228-.203-3.343-.295-.43-.035-.855-.197-1.271-.335-1.439-.479-2.86-1.009-4.346-1.339-.384-.085-.745-.283-1.108-.448-.91-.414-1.841-.766-2.816-1.003a9 9 0 0 1-1.253-.399c-1.036-.42-2.067-.838-3.165-1.091-.704-.162-1.316-.571-1.913-.976-2.373-1.608-4.152-3.744-5.45-6.274-.737-1.437-1.075-3.004-1.153-4.62a3.4 3.4 0 0 1 .02-.598c.281-2.28.869-4.466 1.966-6.501a4.9 4.9 0 0 1 1.286-1.555c.782-.62 1.526-1.292 2.265-1.963 1.377-1.25 3.022-1.927 4.824-2.244.927-.163 1.838.033 2.694.4.892.383 1.83.55 2.777.694.071.011.182-.014.219-.064.033-.043.003-.152-.027-.219a.6.6 0 0 0-.147-.188c-1.92-1.777-3.465-3.874-4.992-5.973-1.319-1.813-2.717-3.559-4.137-5.289-1.832-2.231-3.142-4.712-3.785-7.536a10 10 0 0 0-.189-.694c-.08-.26-.257-.363-.558-.314-.355.057-.709.122-1.06.203-.832.191-1.666.175-2.502.046-.827-.128-1.651-.29-2.482-.381-1.007-.111-1.948-.416-2.855-.844-.657-.31-1.241-.72-1.697-1.302-.196-.251-.405-.507-.657-.696-.945-.708-1.604-1.666-2.308-2.584a7.5 7.5 0 0 1-.968-1.651 8.7 8.7 0 0 0-1.135-1.967c-.501-.648-.767-1.382-.862-2.201-.102-.873-.27-1.738-.239-2.623.013-.371-.112-.705-.268-1.034-.744-1.564-1.203-3.21-1.474-4.918-.195-1.23-.213-2.468-.254-3.705-.023-.678.044-1.359.045-2.038.002-1.364.146-2.724.373-4.056.333-1.952 1.076-3.768 2.449-5.256.521-.565.951-1.172 1.243-1.886.135-.33.337-.636.537-.933.758-1.128 1.508-2.262 2.3-3.366.442-.616.957-1.178 1.445-1.761.459-.549.535-.753-.188-1.22-.367-.237-.771-.419-1.163-.615-.572-.286-1.151-.556-1.722-.843-1.88-.943-3.436-2.326-4.997-3.7-.208-.183-.379-.41-.557-.626-.534-.647-.746-1.376-.68-2.225.087-1.135.34-2.203.905-3.199.295-.52.534-1.072.806-1.606.163-.32.325-.643.516-.946.409-.65.964-1.057 1.779-1.007.113.007.23-.039.371-.065l.124-.583c.135-.624.216-1.265.417-1.867.405-1.211.825-2.422 1.329-3.594 1.057-2.459 2.177-4.891 3.471-7.238q.582-1.053.926-2.207c.24-.807.566-1.579.955-2.325.795-1.529 1.407-3.132 1.955-4.763.28-.833.578-1.66.865-2.491.342-.989.83-1.904 1.425-2.762a28 28 0 0 1 2.458-3.096c1.198-1.291 2.423-2.551 3.724-3.737 1.162-1.059 2.073-2.324 2.928-3.631q.162-.252.303-.517c1.288-2.391 3.316-3.963 5.708-5.114a34.5 34.5 0 0 1 7.451-2.59c1.285-.288 2.564-.635 3.865-.809 1.42-.19 2.858-.377 4.301-.148.158.025.318.05.477.047 1.723-.032 3.43.223 5.147.293.638.026 1.27.03 1.911-.065a4.2 4.2 0 0 1 2.121.24c.595.228 1.211.403 1.821.591.692.213 1.352.494 1.933.932 1.371 1.036 2.798 1.998 4.086 3.144.386.344.824.632 1.25.928a15.6 15.6 0 0 1 3.697 3.561 5.3 5.3 0 0 1 1.002 2.405c.177 1.188.408 2.361.76 3.51.358 1.173.339 2.372.181 3.568-.245 1.847-.83 3.588-1.872 5.138a22 22 0 0 0-2.342 4.577c-.182.485-.407.957-.652 1.414a18 18 0 0 0-1.092 2.397 6.5 6.5 0 0 1-.527 1.074 38.7 38.7 0 0 1-6.969 8.661c-.38.354-.79.676-1.184 1.014-.093.08-.153.177-.122.308-.037 0-.079-.013-.109.001-.024.011-.034.053-.051.082q.108.043.14-.107Zm27.078-6.21c-.17.067-.12.213-.121.34-.238.001-.48-.02-.678.161-.236.215-.489.412-.714.639-.59.596-1.193 1.182-1.744 1.812-1.14 1.302-2.11 2.703-2.526 4.429a33 33 0 0 1-.828 2.875c-.29.848-.4 1.707-.386 2.591q.01.779.038 1.558c.004.116.046.232.079.346.007.022.053.043.083.046.036.003.095-.002.108-.024.08-.137.175-.272.218-.421.243-.844.505-1.684.701-2.538.528-2.296 1.249-4.536 1.933-6.788a6.45 6.45 0 0 1 1.755-2.816c.552-.525 1.09-1.045 1.553-1.649.088-.114.262-.163.396-.241l.107-.33.067-.031-.043.043Zm-1.644 45.174c-.135-.073-.23-.022-.304.097-.215.098-.44.178-.643.297-1.306.766-2.604 1.547-3.911 2.31-1.067.623-2.145 1.226-3.215 1.842-.932.537-1.858 1.085-2.793 1.617-1.675.952-1.482.621-.27 1.942q.081.088.17.168c.177.162.354.184.531.054.514-.377 1.007-.786 1.54-1.134a122 122 0 0 0 5.396-3.759c.873-.64 1.668-1.36 2.437-2.113.338-.331.694-.662.848-1.136.126-.016.194-.09.212-.213l.037-.066zm10.469 52.789.359.151c.025.153.025.315.08.456.145.37.313.731.473 1.095.115.261.167.533.115.815-.011.061-.078.141-.135.156-.063.017-.173-.005-.212-.052a36 36 0 0 1-.961-1.216c-.359-.477-.703-.965-1.059-1.444-.085-.115-.211-.099-.312-.03a1.4 1.4 0 0 0-.256.245c-.28.326-.302.429-.037.711.613.653 1.006 1.425 1.291 2.263q.077.226.165.448c.161.408.249.447.597.241q.41-.243.808-.509c.369-.246.67-.561.915-.93.092-.14.157-.303.051-.444-.475-.628-.896-1.304-1.546-1.78-.059-.196-.197-.206-.362-.153a1.2 1.2 0 0 0-.026-.69c-.035-.07-.059-.148-.107-.207-.042-.052-.116-.121-.163-.112-.055.01-.133.095-.134.149-.001.065.052.152.109.194.106.078.214.019.311-.045-.126.237-.035.463.037.69Zm-82.346-32.133.012-.021c.395.473.883.788 1.491.922.581.128 1.157.283 1.737.415.065.015.145-.04.264-.077-.839-.509-1.746-.779-2.611-1.142-.182-.076-.368-.155-.559-.188-.103-.018-.222.057-.334.091m-4.664-6.586q-.018.115.047.03l-.065-.013c.061-1.11-.381-2.077-.865-3.031-.028-.055-.135-.069-.206-.102-.025.072-.079.147-.071.215.054.473.109.946.188 1.415.087.517.274.997.663 1.368.074.07.205.081.31.119Zm29.016 52.575-.024-.024.046-.007c-.057.173.028.301.132.425.534.638 1.082 1.265 1.596 1.919.256.326.575.39.944.359.071-.006.165-.043.201-.097a.24.24 0 0 0 0-.215 87 87 0 0 0-1.365-1.943.9.9 0 0 0-.371-.271c-.369-.153-.752-.248-1.157-.147Zm47.396 3.499-.077.142c.014-.01.038-.017.041-.029.008-.03.006-.062.007-.093l-2.218-2.779c-.118-.148-.264-.156-.418-.08-.353.174-.703.356-.969.656.019.043.025.091.051.113 1.006.83 2.17 1.422 3.254 2.135.066.044.217-.041.328-.065Zm-24.38-66.349c.043.043.116.127.123.121.134-.099.042-.148-.051-.195.01-.259-.159-.443-.279-.645-.345-.581-.718-1.146-1.042-1.738-.309-.566-.819-.704-1.391-.743-.04-.003-.137.122-.124.16.185.564.375 1.127.588 1.68.053.137.173.28.301.351.619.347 1.175.812 1.875 1.007ZM69.784 91.35c-.282-.107-.327-.349-.269-.587.14-.579.331-1.142.632-1.664.278-.482.517-.985.797-1.465.34-.583.702-1.152 1.059-1.725.21-.337.437-.664.632-1.01.047-.083.035-.25-.02-.329a8 8 0 0 0-.596-.742c-.042-.048-.147-.071-.212-.057-.063.013-.151.083-.161.139-.163.956-.575 1.81-1.035 2.651-.633 1.157-1.413 2.208-2.236 3.231-.124.154-.247.31-.349.478-.028.046-.004.167.039.205.389.339.797.66 1.276.861.132.056.31.004.467 0-.007.074-.049.179-.016.218.103.116.223.23.358.303.423.23.604.137.782-.194.169-.315.352-.631.578-.906.788-.953 1.545-1.933 2.44-2.796.343-.331.633-.719.938-1.088.127-.153.093-.388-.063-.537a4 4 0 0 0-.36-.315.57.57 0 0 0-.672-.002c-.099.067-.23.125-.277.221-.295.596-.839.951-1.293 1.397-.916.9-1.766 1.851-2.049 3.167a1.5 1.5 0 0 1-.192.431c-.035.057-.131.078-.199.115Zm77.397 22.879c-.01-.036-.012-.079-.033-.106-.012-.016-.079-.017-.082-.009-.033.083.009.123.114.117.022.154.007.325.071.458.227.467.456.936.729 1.376.724 1.165 1.227 2.417 1.597 3.733a60 60 0 0 1 1.419 6.31c.194 1.149.484 2.265 1.035 3.3.056.105.116.214.197.299.039.041.133.037.202.036.02 0 .053-.065.054-.101.043-1.557.036-3.105-.207-4.656-.379-2.427-1.084-4.746-2.062-6.991a6 6 0 0 0-.853-1.441c-.557-.681-1.129-1.349-1.699-2.019-.127-.149-.256-.31-.484-.306Zm-6.465-6.739c0 .032-.01.068.001.096.007.017.044.021.068.031l-.093-.107c.029-.215-.085-.383-.18-.557a23.7 23.7 0 0 1-2.253-5.791q-.326-1.338-.678-2.67c-.081-.305-.2-.599-.314-.935-.187.075-.344.113-.474.193-.476.294-.958.581-1.411.908-1.141.825-2.355 1.506-3.692 1.955-.666.223-1.171.627-1.607 1.185a23.4 23.4 0 0 1-3.24 3.361c-1.123.961-2.284 1.878-3.435 2.807-1.308 1.056-2.664 2.04-4.163 2.817-.459.238-.884.542-1.317.827-.113.074-.111.227-.042.321q.25.335.538.639a18.6 18.6 0 0 1 2.648 3.548q.506.885 1.061 1.74c1.568 2.425 2.821 5.01 3.941 7.665a57 57 0 0 0 2.802 5.698c1.406 2.51 2.851 4.997 4.157 7.563.855 1.681 1.598 3.397 2.135 5.202.364 1.225.656 2.473 1.065 3.682.626 1.852 1.238 3.711 1.965 5.528.044.11.083.236.163.315.395.385.72.841 1.289 1.034.41.14.792.376 1.165.604.379.231.681.555.921.931.678 1.062.28 1.941-.257 2.523-.134.146-.299.265-.455.389-.506.4-1.072.692-1.669.931-.632.253-1.26.531-1.788.963-.68.556-1.359 1.122-1.972 1.749-.786.805-1.659 1.502-2.518 2.218a6 6 0 0 1-1.31.837 7.4 7.4 0 0 0-1.427.874c-.665.517-1.376.95-2.173 1.25-.833.314-1.488.921-2.194 1.44-.033.024-.031.164.005.2.14.138.291.27.454.38a23 23 0 0 1 3.075 2.484c.578.552 1.196 1.061 1.793 1.592.747.664 1.55 1.278 2.217 2.014.542.598 1.146.811 1.899.791.6-.016 1.191-.057 1.781-.204 1.216-.303 2.442-.415 3.659.022l.114.038c.238.084.469.06.701-.03.67-.259 1.332-.545 2.014-.765 1.717-.555 3.103-1.627 4.423-2.799a6.3 6.3 0 0 0 .947-1.08c.67-.949 1.038-1.997.715-3.162-.185-.669-.223-1.332-.216-2.015.004-.437-.066-.875-.1-1.312-.097-1.238-.178-2.479.158-3.694.17-.614.372-1.226.626-1.809a9.8 9.8 0 0 0 .823-4.192c-.042-1.968.212-3.908.664-5.823.288-1.218.35-2.45.239-3.693-.093-1.035-.188-2.07-.296-3.104-.126-1.197-.205-2.404-.019-3.589.354-2.259.341-4.543.579-6.809a1.3 1.3 0 0 0-.159-.807c-.374-.66-.71-1.343-1.098-1.994-.432-.725-.817-1.471-1.047-2.281-.655-2.304-1.366-4.595-1.793-6.959-.099-.55-.19-1.103-.324-1.646-.543-2.196-1.564-4.181-2.741-6.093-.235-.381-.566-.664-.918-.935a216 216 0 0 1-3.119-2.435c-1.14-.909-2-2.064-2.782-3.276-.257-.398-.43-.856-.605-1.3-.219-.557-.396-1.13-.6-1.693-.276-.76-.436-1.536-.355-2.347.005-.055.09-.131.15-.145a.28.28 0 0 1 .218.049c.278.244.43.57.555.91.345.936.718 1.863 1.029 2.81.372 1.13 1 2.082 1.857 2.892.046.043.145.03.22.043ZM77.72 168.553c.25.072.38.282.517.472a10 10 0 0 1 1.089 1.979c.216.523.768.749 1.387.618.04-.009.101-.155.079-.192-.498-.809-1.139-1.532-1.455-2.451a.3.3 0 0 0-.158-.169c-.478-.169-.938-.463-1.48-.24-.044-.105-.058-.264-.136-.306-.244-.133-.513-.22-.769-.331a19.3 19.3 0 0 1-3.639-2.07c-.194-.14-.39-.277-.471-.521-.033-.099-.011-.171.087-.186.114-.016.245-.046.345-.007q.668.263 1.323.56a28 28 0 0 0 5.093 1.732c1.633.388 3.3.593 4.963.808.673.087 1.347.183 2.024.226 1.878.118 3.723.462 5.573.779.193.033.377.127.563.198.142.054.223.197.154.265-.05.049-.11.121-.17.124a25 25 0 0 1-1.197.039c-.96.007-1.919.003-2.879.013-.107.001-.257.031-.31.103-.094.128.056.221.142.283.783.571 1.476 1.224 1.956 2.08.15.267.389.387.69.402.24.011.479.035.719.039.92.015 1.835.063 2.744.234.466.087.939.14 1.428.109 1.116-.071 2.237-.082 3.356-.105.48-.01.949.056 1.42.186.849.233 1.696.318 2.591.099.779-.19 1.539-.367 2.258-.749.986-.524 1.979-1.06 3.022-1.444a13.6 13.6 0 0 0 3.646-2.034c1.357-1.053 2.723-2.098 4.01-3.241.806-.715 1.684-1.35 2.535-2.013a7.8 7.8 0 0 1 1.762-1.014c.882-.375 1.768-.738 2.651-1.111.958-.404 1.879-.868 2.736-1.473a87 87 0 0 1 3.498-2.315 18 18 0 0 0 1.664-1.172c.56-.449 1.125-.912 1.748-1.259 1.226-.684 2.317-1.564 3.501-2.307.232-.146.308-.339.321-.595.073-1.532-.355-2.922-1.191-4.193a175 175 0 0 0-1.928-2.893c-.793-1.157-1.516-2.35-2.066-3.644a19 19 0 0 0-.735-1.508c-1.092-2.048-2.092-4.136-2.792-6.356a13 13 0 0 0-.462-1.235c-1.128-2.646-2.239-5.299-3.405-7.928-1.207-2.722-2.746-5.236-4.866-7.362a65 65 0 0 1-1.58-1.643c-1.769-1.904-3.53-3.815-5.296-5.722-.462-.499-.92-1.002-1.399-1.484-.873-.88-1.74-1.773-2.83-2.393a89 89 0 0 0-2.738-1.487c-.565-.296-1.138-.586-1.776-.702-.06-.011-.137.043-.197.081-.019.012-.021.077-.008.109.419.992.835 1.984 1.268 2.97.06.137.188.254.309.351.187.149.389.282.594.405 1.583.948 2.998 2.128 4.456 3.245a10.1 10.1 0 0 1 2.548 2.843c.12.202.207.431.266.658.022.087-.062.218-.13.302-.026.032-.166.014-.218-.027-.502-.395-.982-.819-1.495-1.198-1.386-1.023-2.666-2.17-3.941-3.324-.296-.268-.582-.553-.902-.789-1.351-.997-2.723-1.965-4.196-2.778-.382-.211-.805-.354-1.169-.59-1.212-.784-2.534-1.149-3.97-1.148q-1.438-.001-2.876-.014-3.119-.026-6.236-.061c-.359-.004-.727.008-1.075-.064-.912-.188-1.82-.234-2.74-.089-.064.01-.19-.041-.198-.082-.022-.108-.034-.251.021-.333a1.04 1.04 0 0 1 .347-.319c.602-.338 1.246-.539 1.944-.51 1.206.051 2.378-.274 3.574-.328.159-.007.276-.215.21-.352-.104-.215-.217-.425-.327-.637-.159-.306-.408-.471-.753-.521-.987-.144-1.963-.313-2.976-.166-.531.077-1.006.198-1.435.523-.8.607-1.684 1.062-2.602 1.47-1.131.504-2.249 1.055-3.243 1.802-1.928 1.448-3.648 3.107-5.078 5.062-.806 1.102-1.436 2.303-2.124 3.475-1.079 1.838-1.875 3.796-2.601 5.786-.273.747-.451 1.531-.648 2.304-.224.874-.151 1.733.134 2.592.669 2.012 1.439 3.982 2.404 5.871a42 42 0 0 0 2.202 3.849c.982 1.507 1.933 3.034 2.938 4.525.513.76 1.065 1.507 1.689 2.176 1.008 1.08 2.097 2.085 3.139 3.134.563.567 1.125 1.138 1.637 1.749.517.617.896 1.322 1.019 2.139.044.293-.122.492-.388.446-.315-.055-.628-.122-.94-.188-1.293-.275-2.589-.459-3.922-.365-.673.048-1.357-.021-2.034-.073-.686-.053-1.374-.034-2.015.19-1.055.37-2.095.798-3.006 1.466-.938.689-1.922 1.297-2.981 1.777-.429.195-.698.503-.915.902-.486.893-.674 1.876-.888 2.85-.245 1.113-.224 2.211.156 3.309.234.677.365 1.39.528 2.091q.164.708.51 1.341c.56 1.018 1.181 1.998 1.953 2.87a84 84 0 0 0 2.356 2.559c.386.401.799.798 1.264 1.095a59 59 0 0 0 3.096 1.826c.592.329 1.225.581 1.91.661.103.012.255-.115.237-.205-.031-.155-.06-.311-.106-.462-.126-.42-.265-.837-.388-1.257a.364.364 0 0 1 .147-.418Zm32.07-101.06c-.246.127-.342.21-.448.224-.434.059-.872.14-1.308.135-1.325-.017-2.632.185-3.939.328-1.983.218-3.952.56-5.928.843-.275.039-.557.04-.836.052-.126.005-.253-.122-.221-.216.024-.072.049-.153.099-.205.27-.279.66-.265.996-.374.313-.102.58-.227.808-.475.541-.588 1.106-1.155 1.658-1.733.082-.086.149-.185.221-.28.064-.084-.015-.252-.13-.264-.436-.046-.879-.057-1.25-.348-.236-.185-.326-.487-.194-.742.279-.537.666-.992 1.075-1.435a106 106 0 0 0 1.678-1.875c.766-.87 1.515-1.755 2.292-2.615 1.13-1.251 2.127-2.592 2.919-4.086.28-.527.595-1.046.963-1.514.766-.973 1.534-1.952 2.382-2.851 1.035-1.097 1.777-2.35 2.329-3.738.339-.853.723-1.688 1.075-2.537.566-1.367 1.068-2.754 1.356-4.212.276-1.396.343-2.771-.24-4.12-.157-.364-.241-.761-.341-1.147a84 84 0 0 1-.486-1.978 3.35 3.35 0 0 0-.769-1.467c-.818-.937-1.676-1.83-2.694-2.549-1.078-.761-2.128-1.557-3.117-2.431-.12-.106-.254-.195-.378-.295-.78-.624-1.568-1.239-2.336-1.878a7.4 7.4 0 0 0-1.601-1.042 10 10 0 0 1-1.354-.765c-1.095-.734-.895-.683-2.343-.576-.159.012-.322.014-.477.047-.867.188-1.748.169-2.627.19-.839.02-1.679.044-2.515.108a15 15 0 0 1-1.675.041c-1.08-.035-2.171-.027-3.225.191-1.641.339-3.262.786-4.824 1.402-1.485.585-2.944 1.238-4.414 1.864a7 7 0 0 0-.649.308c-.099.056-.208.148-.245.248-.165.447-.307.903-.445 1.359-.006.02.124.121.164.108a40 40 0 0 0 1.688-.601c.375-.145.756-.252 1.157-.26.063-.001.15.064.187.123s.061.17.03.222c-.1.169-.211.336-.346.477a16.4 16.4 0 0 1-3.688 2.851c-1.143.656-2.304 1.281-3.451 1.93-.695.394-1.414.766-1.964 1.36-.977 1.057-1.96 2.11-2.883 3.213-1.103 1.317-2.151 2.68-3.212 4.032-.493.628-.96 1.277-1.441 1.916-.047.063-.094.141-.16.171-.057.026-.144.001-.212-.019-.029-.009-.056-.061-.063-.098-.039-.207.023-.393.125-.571.434-.765.876-1.524 1.296-2.297.586-1.079.638-.736.059-2.086q-.025-.055-.053-.108c-.105-.208-.3-.203-.45.019a6 6 0 0 0-.316.509c-.842 1.59-1.644 3.195-2.132 4.941a15.6 15.6 0 0 1-2.103 4.55c-.627.927-1.248 1.858-1.879 2.782-.361.529-.715 1.061-.967 1.652-.503 1.179-1.123 2.296-1.797 3.384q-.603.97-1.012 2.036c-.6 1.566-1.212 3.128-1.81 4.695-.114.298-.195.609-.279.917-.451 1.655-.811 3.34-1.647 4.865-.085.156-.052.329.113.409 1.046.509 1.836 1.405 2.889 1.902.791.744 1.725 1.261 2.67 1.782.524.289.996.617 1.614.717.703.114 1.241.528 1.561 1.189.035.072.086.136.12.208.35.75.979 1.162 1.748 1.332a5.8 5.8 0 0 1 1.759.726c.236.143.505.237.766.336 1.249.473 2.35 1.178 3.347 2.064a23 23 0 0 1 1.701 1.688c.249.272.467.544.506.923.025.243.185.337.406.351 1.248.075 2.258.614 3.228 1.401 1.08.876 2.178 1.754 3.429 2.402.908.471 1.641 1.123 2.098 2.066.28.579.624 1.109 1.278 1.361.171.066.308.252.43.407.214.274.464.269.745.143l.109-.051c1.682-.797 3.468-1.171 5.311-1.335.675-.06 1.346-.178 2.016-.284q2.069-.327 4.135-.676c.866-.146 1.744-.252 2.589-.48a119 119 0 0 0 6.196-1.836c1.634-.539 3.232-1.142 4.77-1.917a8.6 8.6 0 0 0 2.557-1.948c.481-.536.966-1.068 1.423-1.623.303-.369.572-.768.833-1.169.523-.804 1.033-1.615 1.541-2.429.296-.474.624-.936.855-1.442.545-1.189.767-2.423.409-3.726-.169-.615-.288-1.247-.281-1.893A3.1 3.1 0 0 0 114.04 67c-.483-.987-1.239-1.658-2.382-1.763-.437-.04-.879-.016-1.318-.032a1.2 1.2 0 0 0-.875.317 10.4 10.4 0 0 1-1.765 1.235 2 2 0 0 1-.436.186.27.27 0 0 1-.219-.051c-.039-.033-.059-.155-.03-.192.197-.25.412-.485.615-.73.124-.15.244-.305.35-.468.054-.082.002-.146-.101-.172-.203-.05-.412-.056-.559.103a8.8 8.8 0 0 1-1.829 1.539.2.2 0 0 0-.069.096.17.17 0 0 0 0 .109c.011.033.04.081.066.084.155.02.313.048.468.038 1.234-.083 2.447.158 3.83.193Zm27.195 26.014c.301-.336.582-.668.884-.98.75-.775 1.502-1.549 2.267-2.31.794-.79 1.605-1.567 2.524-2.208a7.4 7.4 0 0 0 1.789-1.751c.445-.618.932-1.201 1.533-1.676a2.1 2.1 0 0 0 .762-1.185q.102-.406.225-.807c.26-.852.202-1.743.325-2.612.182-1.295.035-2.554-.328-3.792-.572-1.953-1.098-3.92-1.869-5.81-.258-.632-.536-1.244-.941-1.798-.331-.452-.614-.934-.793-1.472-.69-2.074-1.896-3.865-3.115-5.646a5.3 5.3 0 0 0-.796-.892c-1.539-1.401-3.324-2.338-5.368-2.753-.782-.159-1.581-.242-2.355-.432-.922-.226-1.642.096-2.286.698-.202.189-.371.416-.547.633-.226.279-.42.588-.67.842-.867.881-1.387 1.958-1.691 3.125a84 84 0 0 1-2.312 7.426c-.563 1.551-.842 3.158-.988 4.794-.026.289.042.553.131.82.329.988.716 1.953 1.252 2.846a50 50 0 0 0 4.049 5.791c1.366 1.679 2.927 3.171 4.425 4.723.973 1.008 1.928 2.023 2.756 3.158.325.446.633.923 1.138 1.268Zm-2.512-37.521c.039.052.057.103.088.114.301.101.602.201.906.292 1.904.569 3.595 1.531 5.105 2.808.424.359.835.757 1.16 1.205a40 40 0 0 1 1.861 2.79c.599.991 1.1 2.033 1.454 3.146.156.488.439.936.668 1.401.212.429.485.836.634 1.285.487 1.478.95 2.967 1.224 4.503.119.67.263 1.329.437 1.986.358 1.352.704 2.709.605 4.13-.006.079.007.16.02.238.006.038.041.106.047.104.062-.018.151-.031.174-.076a1.7 1.7 0 0 0 .179-.443c.189-.939.413-1.875.536-2.824.139-1.072.142-2.151-.168-3.21a81 81 0 0 1-.66-2.426c-.202-.779-.521-1.509-.896-2.216-1.009-1.905-2.017-3.811-3.034-5.712-.188-.351-.413-.683-.623-1.022-.695-1.119-1.487-2.176-2.078-3.362-.494-.99-1.27-1.727-2.182-2.341a4.06 4.06 0 0 0-2.013-.689c-1.16-.083-2.306.005-3.441.319Zm5.128 121.621h-1.387c-.358 0-.722-.028-1.06.128-.061.028-.098.115-.135.181-.007.013.036.072.066.083.299.105.593.261.9.296a20 20 0 0 1 3.734.816c.247.078.466.055.696-.033a13.3 13.3 0 0 0 1.927-.956 270 270 0 0 1 3.839-2.21c.878-.493 1.646-1.124 2.391-1.789q.642-.574.916-1.383c.398-1.175.727-2.366.778-3.616.018-.439.027-.879.067-1.316.066-.724-.013-1.437-.135-2.146-.143-.825-.3-1.648-.456-2.471-.022-.114-.068-.225-.112-.333-.012-.029-.067-.068-.086-.06-.067.025-.17.057-.183.107-.051.19-.097.388-.1.583a231 231 0 0 0-.043 4.073c0 .315.074.633.137.946.174.855.034 1.674-.307 2.455-.207.473-.467.927-.739 1.368a10.44 10.44 0 0 1-4.488 4.023c-1.487.704-3.116.96-4.735 1.187-.511.072-1.036.049-1.484.067Zm14.575-37.317h-.02c0-1.119-.04-2.239.012-3.356.045-.973-.308-1.789-.799-2.577-.019-.03-.077-.065-.1-.056-.067.026-.17.066-.18.115-.054.272-.11.548-.12.824a137 137 0 0 0-.053 8.148q.055 2.336.025 4.674c-.008.676-.108 1.352-.181 2.027-.086.794-.195 1.586-.278 2.38-.033.314-.092.635.021.948.009.024.05.052.074.05.035-.002.093-.022.101-.047.236-.762.512-1.514.688-2.29.335-1.48.597-2.974.6-4.501 0-.439-.015-.886.058-1.315.156-.913.152-1.83.153-2.748zM69.563 81.903c-.083-.114-.132-.263-.222-.293a27 27 0 0 0-1.707-.51c-.081-.021-.236.076-.294.162-.2.296-.358.621-.558.917-.472.696-.881 1.431-1.135 2.229-.225.708-.617 1.286-1.123 1.807-.194.2-.393.396-.585.598-.155.164-.145.346.035.516.203.191.416.371.624.558.443.397.636.395.897-.12.196-.388.462-.744.726-1.093.553-.73 1.143-1.432 1.686-2.17.519-.705 1.001-1.437 1.488-2.165.084-.126.113-.289.168-.436m-11.19-7.236c-.064-.033-.131-.101-.19-.095-.557.063-1.107.115-1.634-.163-.162-.086-.308.017-.387.172-.235.46-.478.918-.69 1.389a8.7 8.7 0 0 1-1.188 1.924c-.376.463-.721.952-1.074 1.433-.138.188-.123.41.044.521.397.264.797.524 1.211.76.073.041.246-.007.319-.073.114-.103.186-.255.269-.391a31 31 0 0 1 1.943-2.863c.588-.762.938-1.659 1.392-2.497.015-.028-.008-.076-.014-.115Zm8.428 5.964c-.03-.072-.042-.164-.094-.213a12 12 0 0 0-.633-.55c-1.191-.962-1.081-.861-1.492.397-.05.152-.126.297-.157.452-.215 1.058-.804 1.893-1.52 2.671-.431.468-.795.999-1.184 1.505-.112.145-.099.311.027.43q.433.411.898.786c.09.072.239.058.313-.056q.261-.403.495-.82c.256-.457.546-.888.956-1.219 1.054-.852 1.638-2.05 2.348-3.156.039-.061.03-.152.043-.229Zm6.889 12.617c.57.269 1.146.534 1.715.811.533.259.982.189 1.395-.229.336-.34.672-.681 1.021-1.009.265-.248.499-.515.668-.838.222-.424.454-.843.668-1.271.069-.138.139-.304.127-.45a4 4 0 0 1 .173-1.531c.01-.032-.008-.088-.033-.112-.085-.08-.168-.18-.272-.218-.108-.039-.248-.006-.288.128-.147.498-.297.996-.578 1.437q-.675 1.059-1.374 2.103a4.8 4.8 0 0 1-1.44 1.411c-.029.018-.098.023-.115.004-.048-.054-.117-.128-.11-.185.018-.154.052-.313.116-.453.237-.514.592-.948.98-1.352.423-.44.741-.915.89-1.527.102-.417.359-.795.541-1.193.115-.253.237-.505.318-.769.026-.085-.04-.232-.111-.306-.115-.121-.287-.135-.447-.097-.121.029-.214.12-.191.251.147.844-.278 1.458-.807 2.03-.325.352-.713.661-.971 1.056a11.8 11.8 0 0 1-1.843 2.181c-.024.023-.02.076-.033.128Zm70.582-4.9c-.024-.031-.041-.076-.073-.09a.14.14 0 0 0-.113.008c-1.372.758-2.645 1.654-3.701 2.819-.911 1.006-1.774 2.055-2.658 3.086a.35.35 0 0 0-.039.438q.15.259.312.51a.284.284 0 0 0 .413.085c.69-.485 1.301-1.058 1.879-1.669.467-.494.913-1.009 1.402-1.48 1.049-1.012 1.84-2.205 2.523-3.479.035-.066.036-.151.053-.227Zm-88.59-15.105c-.036-.105-.055-.184-.089-.254-.157-.328-.393-.593-.663-.831-.147-.129-.281-.104-.375.095-.835 1.775-2.009 3.329-3.187 4.878-.553.727-.523.708.13 1.343q.215.207.443.398c.489.413.575.397.909-.102.468-.699.844-1.434 1.014-2.268.162-.797.548-1.482 1.075-2.098.232-.27.434-.567.635-.861.063-.092.079-.215.108-.3m-1.369-1.927c-.037-.068-.058-.154-.112-.203-.465-.415-1.032-.354-1.594-.348-.359.004-.596.124-.739.476-.484 1.187-1.131 2.292-1.736 3.419a27 27 0 0 0-.536 1.072 1 1 0 0 0-.11.339c-.009.112-.003.261.062.337.18.209.383.404.602.57.057.043.253-.006.311-.075.153-.182.282-.389.391-.601a12 12 0 0 1 1.938-2.728c.189-.202.371-.431.483-.681.233-.519.525-.985.948-1.368.052-.047.062-.139.092-.21Zm12.691 18.436c.072-.025.165-.03.213-.079.111-.111.213-.237.297-.37.598-.943 1.248-1.836 2.06-2.618.576-.554.979-1.247 1.229-2.021.134-.415.313-.816.469-1.225.104-.274.066-.431-.192-.608a4 4 0 0 0-.623-.332c-.053-.024-.176.013-.21.062a4 4 0 0 0-.293.512c-.302.606-.591 1.222-1.035 1.739-.498.581-.903 1.212-1.147 1.939-.17.505-.482.91-.865 1.268-.261.244-.53.481-.79.726a.274.274 0 0 0 .013.418q.318.27.652.518c.059.044.147.048.222.07Zm-9.787-7.566c.418.334.875.484 1.308.677q.246.11.415-.11c.315-.417.535-.884.721-1.369.218-.569.532-1.08 1.014-1.453.785-.609 1.232-1.443 1.645-2.311.101-.211.045-.375-.029-.563-.155-.393-.473-.631-.797-.864-.131-.094-.343-.037-.397.109q-.27.726-.537 1.454c-.267.729-.689 1.363-1.308 1.82-.929.687-1.392 1.704-2.036 2.611Zm7.064-3.337c-.061-.066-.105-.141-.17-.178-.413-.233-.831-.458-1.247-.686-.448.267-.463.801-.727 1.185-.43.623-.734 1.316-1.019 2.017a5.3 5.3 0 0 1-1.094 1.691 4 4 0 0 0-.38.455c-.033.047-.026.173.014.213.36.367.735.718 1.215.93.444-.207.504-.679.709-1.046.29-.52.581-1.044.805-1.594a6.7 6.7 0 0 1 1.111-1.821c.306-.361.649-.704.785-1.165Zm8.499 14.068c.071-.028.164-.036.21-.087.752-.821 1.504-1.641 2.239-2.477.125-.143.18-.352.251-.536.101-.259.182-.526.281-.786.187-.491.434-.939.913-1.215.136-.079.276-.199.209-.363-.031-.075-.209-.084-.315-.134-.446-.209-.831-.218-1.119.269a.77.77 0 0 1-.359.305c-.772.3-1.145.941-1.465 1.641-.132.289-.303.56-.444.845a6.4 6.4 0 0 1-1.072 1.572 2.7 2.7 0 0 0-.299.368c-.034.053-.039.193-.011.208.31.168.604.386.98.39Zm39.303 82.915a6.3 6.3 0 0 1 1.701-.791c.181-.055.239-.233.146-.369-.387-.56-.824-1.069-1.403-1.446-.447-.291-.756-.7-.96-1.189-.076-.183-.141-.372-.22-.553-.138-.314-.265-.368-.535-.216q-.622.352-1.234.723a.9.9 0 0 0-.265.232c-.038.052-.049.172-.014.221.112.161.222.357.384.444.779.419 1.21 1.122 1.617 1.861.208.377.388.784.785 1.084ZM50.346 69.154c-.087.06-.221.106-.275.197a9 9 0 0 0-.493.95 15.2 15.2 0 0 1-1.952 3.266c-.073.094-.163.184-.204.291-.039.103-.064.241-.028.34.167.46.452.839.87 1.101.108.068.231.02.298-.091.081-.136.159-.277.215-.425.436-1.162 1.073-2.214 1.742-3.251.237-.367.451-.748.667-1.128.083-.145.097-.315-.003-.451a10 10 0 0 0-.599-.734c-.043-.048-.146-.042-.238-.065m64.508 105.31c.076-.013.163-.006.226-.042a4.8 4.8 0 0 0 1.222-.944c.108-.117.05-.232-.017-.322a2.2 2.2 0 0 0-.329-.341c-.882-.757-1.699-1.566-2.147-2.672-.015-.036-.04-.068-.061-.101-.078-.121-.302-.205-.418-.142-1.423.774-1.355.493-.574 1.853.137.239.311.464.5.666.41.44.751.927 1.068 1.434.105.168.21.337.331.494.044.057.132.079.2.117Zm2.404-1.943c.09-.038.206-.067.298-.13.426-.291.846-.592 1.268-.889-.108-.537-.591-.815-.856-1.244q-.504-.813-1.006-1.628c-.365-.595-.451-.624-1.028-.308q-.262.144-.519.298c-.666.396-.828.364-.136 1.072.477.487.831 1.068 1.142 1.676.18.353.398.688.611 1.023.037.058.132.079.225.131ZM56.664 81.887c.075-.048.209-.087.261-.175q.551-.923 1.068-1.865c.093-.171.156-.367.191-.559.177-.963.613-1.801 1.2-2.573.265-.348.508-.714.753-1.077.138-.205.117-.341-.074-.524a12 12 0 0 0-.535-.477c-.12-.101-.347-.031-.38.116-.385 1.7-1.111 3.219-2.295 4.522-.479.527-.87 1.137-1.288 1.718-.063.087-.089.237.039.319q.452.285.912.554c.031.018.076.011.149.02Zm64.212 83.714c-.039.007-.084.004-.117.022-.348.19-.697.378-1.039.579-.141.083-.159.273-.056.413.071.096.142.193.222.282.594.665.989 1.443 1.295 2.272q.144.392.321.771c.058.125.19.136.299.078q.738-.395 1.466-.805c.142-.08.174-.267.073-.412-.205-.294-.401-.598-.635-.868-.55-.635-1.064-1.293-1.48-2.025a.7.7 0 0 0-.148-.186c-.058-.051-.133-.082-.2-.121Zm10.034-2.391c.041 0 .086.013.116-.002.465-.232.87-.549 1.213-.936.049-.056.023-.246-.036-.319-.702-.868-1.325-1.785-1.825-2.785-.099-.199-.281-.242-.507-.111-.411.239-.812.495-1.212.752-.145.093-.159.263-.049.412.704.956 1.587 1.781 2.107 2.873.027.057.129.079.193.115Zm-6.621 5.4c.038-.012.079-.018.114-.035a5.4 5.4 0 0 0 1.378-.944c.134-.126.144-.296-.006-.414-.773-.606-1.251-1.443-1.772-2.247-.152-.234-.281-.482-.428-.719-.079-.127-.306-.181-.426-.1a18 18 0 0 0-.779.556c-.16.122-.186.331-.081.539.108.214.216.429.344.631.535.843 1.108 1.663 1.484 2.597.024.059.113.091.172.135Zm-75.276-61.667c-.033-.642-.042-1.119-.086-1.592-.256-2.797-.119-5.566.53-8.307.174-.734.349-1.476.285-2.243-.004-.048-.085-.095-.139-.129-.016-.01-.077.024-.093.051-.096.173-.199.344-.274.527-.695 1.68-.981 3.445-1.016 5.248a35 35 0 0 0 .334 5.604c.04.279.105.546.458.841Zm86.564 53.558c.209-.071.441-.13.656-.227.327-.148.644-.318.96-.487.19-.101.2-.301 0-.462-.38-.306-.664-.688-.926-1.091-.174-.268-.349-.536-.506-.813-.652-1.154-.511-.942-1.636-.497-.257.102-.505.227-.75.338.07.347.349.464.561.634.611.487 1.058 1.077 1.254 1.847.067.265.118.551.385.757Zm-14.761 10.026c-.021-.072-.02-.165-.066-.213-.506-.521-.828-1.152-1.133-1.8-.185-.393-.407-.77-.635-1.141-.281-.457-.432-.502-.863-.25-.776.454-.946.382-.301 1.284.318.444.514.979.747 1.481.74 1.596.823 1.476 2.251.638Zm9.134-6.807c-.035-.07-.057-.153-.108-.21-.559-.628-.966-1.352-1.338-2.099a8 8 0 0 0-.351-.62q-.248-.399-.586-.144-.378.289-.736.6c-.174.15-.195.344-.034.522.754.836 1.335 1.768 1.643 2.861.064.226.278.288.449.146q.503-.416.991-.851c.047-.042.049-.136.072-.206Zm-21.688 9.393c-.133.001-.269.107-.496.299-.28.237-.237.552-.11.754.103.164.236.334.397.434.416.258.727.62 1.061.963q.544.559 1.106 1.097c.143.137.305.259.475.362.39.237.89.014 1.044-.463.052-.162-.007-.308-.136-.426-.47-.433-.935-.871-1.407-1.302-.147-.134-.294-.277-.464-.377-.527-.309-.981-.683-1.267-1.238-.028-.055-.134-.069-.204-.102Zm26.053-12.186c-.039-.069-.066-.149-.118-.204-.504-.527-.832-1.161-1.134-1.815-.149-.324-.337-.631-.517-.94-.091-.156-.252-.217-.408-.136-.352.183-.693.388-1.033.592-.118.071-.123.307-.014.429.159.178.326.35.49.523a4.9 4.9 0 0 1 1.064 1.713c.269.749.266.87 1.072.385q.255-.154.485-.342c.056-.046.076-.136.113-.206Zm-8.785 1.528c-.037.011-.082.013-.111.035-.347.26-.698.515-1.033.79-.127.104-.166.267-.052.418.334.443.691.866 1.136 1.204.387.295.681.657.838 1.124.038.112.093.218.144.324.085.176.238.227.372.121a39 39 0 0 0 .737-.599c.186-.155.225-.363.064-.501-.743-.637-1.184-1.471-1.578-2.342a2.8 2.8 0 0 0-.308-.501c-.036-.049-.138-.05-.209-.072Zm-38.149 7.455-1.443-.033c-.079-.002-.163-.009-.236.015-.063.021-.147.075-.16.129-.015.059.02.157.068.202.659.629 1.318 1.258 1.799 2.043.138.225.345.312.597.32.198.007.397.031.593.013a.5.5 0 0 0 .279-.154c.032-.034.007-.16-.031-.218a13 13 0 0 0-.48-.677c-.38-.503-.777-.995-.985-1.641ZM54.37 87.03s.113-.055.204-.128c.844-.68 1.548-1.494 2.228-2.331.211-.26.182-.433-.098-.719-.192-.196-.365-.213-.498-.037-.745.987-1.467 1.989-2.03 3.096-.015.029-.004.07-.008.105-.008.072.023.092.202.014m48.728-19.551c.579.087 1.004-.144 1.343-.6.117-.158.279-.284.426-.418.324-.294.655-.58.973-.881.046-.044.044-.146.048-.222 0-.017-.063-.047-.1-.055-.541-.108-1.005-.008-1.418.404-.422.421-.903.782-1.355 1.174a2.3 2.3 0 0 0-.328.343c-.023.031.023.165.065.183.106.045.229.049.345.07ZM83.284 169.625c-.075 0-.118-.01-.153.002-.105.034-.208.077-.312.116.041.106.054.239.127.313.612.623 1.222 1.245 1.707 1.978.172.26.434.332.728.292.068-.009.134-.065.189-.112.017-.015.007-.083-.012-.113-.492-.764-1.147-1.415-1.548-2.244-.042-.086-.184-.145-.291-.174-.151-.041-.313-.042-.436-.057Zm7.201-67.896c-.127.02-.282.04-.435.068-.169.031-.159.181-.12.273.138.324.285.647.465.948.071.119.239.249.366.252.389.009.779-.035 1.168-.074.045-.005.124-.119.114-.166-.096-.432-.349-.782-.634-1.106a.56.56 0 0 0-.309-.148c-.192-.033-.39-.032-.615-.047m9.657-33.949c.429.058.764-.077 1.108-.107a.37.37 0 0 0 .204-.112q.917-.926 1.825-1.861c.022-.023.031-.098.015-.112-.058-.047-.125-.103-.195-.112-.286-.038-.537.022-.762.233-.607.568-1.231 1.118-1.844 1.68-.113.103-.206.227-.352.391Zm-5.007 34.383h-.206c-.108.001-.233.157-.188.242.11.208.215.419.346.614.061.09.167.177.269.207.451.134.903.273 1.385.231.11-.01.219-.157.166-.243a17 17 0 0 0-.438-.692.7.7 0 0 0-.599-.313c-.157-.003-.313-.019-.734-.046ZM68.98 34.721c-.061-.334-.108-.643-.177-.947-.026-.115-.131-.212-.256-.163a1.4 1.4 0 0 0-.753.701c-.093.19.033.378.076.566.061.266.1.537.151.806.019.1.199.149.274.069.187-.199.384-.391.543-.611.085-.118.099-.287.142-.422Zm3.133-3.068c0-.211.01-.329-.003-.445s-.012-.275-.083-.329c-.14-.107-.278.016-.412.095-.538.317-.748.774-.626 1.388.03.152.027.311.043.466.013.119.178.221.256.161.471-.363.962-.714.824-1.336Zm2.585-2.676v.283c0 .039.01.078.012.118.01.185.173.275.325.176q.247-.162.488-.332c.239-.168.389-.382.373-.692-.01-.197-.002-.394-.009-.591-.008-.244-.19-.341-.39-.216-.482.301-.948.612-.8 1.253Zm2.119-1.153c.008.05-.011.197.054.271.13.148.287.032.418-.039.174-.095.347-.195.505-.314.126-.094.211-.212.178-.402-.054-.311-.066-.629-.114-.942-.007-.049-.117-.124-.17-.117-.391.055-.717.327-.769.646-.045.274-.064.553-.102.897m22.486 76.167c-.007-.038-.006-.079-.023-.112-.176-.349-.34-.705-.539-1.041a.7.7 0 0 0-.353-.287c-.177-.056-.379-.05-.568-.039q-.209.013.016.511c.064.143.124.288.192.429.241.498.723.531 1.182.605.027.004.062-.044.093-.067ZM69.442 33.579h.006c0 .158-.009.317.003.474.009.111.016.249.178.249a.4.4 0 0 0 .221-.057c.381-.266.655-.575.447-1.093-.073-.181-.092-.384-.139-.576-.026-.105-.185-.162-.281-.111-.216.115-.407.257-.431.521-.017.196-.003.394-.003.592Zm23.836 69.704c.372-.024.488-.031.605-.04.149-.012.267-.211.193-.335-.12-.201-.248-.397-.371-.596-.243-.395-.616-.448-1.023-.368-.1.02-.225.103-.177.251q.09.276.209.54c.157.352.409.565.564.548M72.971 30.542c-.041.218-.087.411-.108.607-.006.052.057.119.102.166.014.014.083-.004.11-.027.265-.235.532-.467.785-.714.12-.116.141-.282.107-.443a12 12 0 0 0-.169-.69c-.038-.141-.249-.155-.382-.045-.188.156-.342.331-.38.581-.029.196-.046.393-.066.566Zm-5.642 6.443c-.012-.116-.014-.276-.047-.429-.075-.345-.168-.687-.248-1.031-.023-.1-.075-.147-.172-.112a.5.5 0 0 0-.193.113c-.142.145-.255.326-.206.529.12.492.264.979.409 1.465.027.091.105.072.19.009.173-.128.243-.301.266-.544Zm-5.8 87.901q1.841.553 4.153.238l-1.502-.097c-.438-.029-.876-.053-1.314-.088-.418-.033-.833-.207-1.337-.053m-1.163-.179c.113.036.162.008.125-.075-.007-.017-.074-.012-.112-.006-.009.002-.009.053-.013.081" data-color="1"/>
        <path fill="#40664b" d="M97.096 134.233c-.569-.205-1.166-.276-1.761-.311-.724-.043-1.42-.21-2.121-.365a17 17 0 0 0-.937-.189c-.204-.033-.385.033-.548.176a27 27 0 0 1-4.376 3.133c-.275.157-.56.315-.861.404-.92.274-1.798-.474-1.708-1.429.023-.247.107-.469.284-.644.255-.253.52-.496.777-.746q.645-.624 1.281-1.259c.049-.049.057-.138.083-.207-.443-.175-.893-.334-1.325-.532a4 4 0 0 1-.707-.445c-.356-.27-.478-.613-.353-.935.135-.349.452-.441.77-.48.475-.059.955-.084 1.433-.113.198-.012.398-.003.598.003.105.003.156-.037.153-.141-.001-.036.009-.084-.01-.107-.254-.308-.513-.611-.77-.917-.336-.399-.637-.82-.853-1.298a2.06 2.06 0 0 1-.197-1.047c.053-.589.538-.931 1.106-.755.186.058.38.145.525.272.299.262.61.528.84.848.851 1.182 2.012 2.052 3.029 3.066q.301.298.725.399c.736.179 1.464.391 2.203.553.779.171 1.566.304 2.352.444.066.012.172-.024.21-.075.037-.049.042-.164.009-.219-.183-.309-.382-.609-.574-.913-.638-1.015-1.295-2.018-1.902-3.051-.277-.471-.626-.67-1.163-.66-.837.014-1.674-.078-2.502.154-.427.12-.864.048-1.296-.096-.851-.283-1.61-.699-2.214-1.371-.223-.248-.345-.532-.316-.874.044-.528.376-.902.893-.962.236-.028.477-.016.716-.011.359.008.718.038 1.078.037.437-.002.874-.026 1.31-.047.015 0 .045-.069.039-.101-.088-.455-.454-.733-.711-1.076a3 3 0 0 1-.571-1.43c-.03-.232-.017-.48.034-.709.157-.709.791-1.056 1.46-.81.74.272 1.3.772 1.733 1.419.198.296.369.609.548.907.212-.042.234-.21.298-.343.261-.538.507-1.084.786-1.612.129-.244.304-.47.49-.674.3-.329.74-.308 1.056.025a1.8 1.8 0 0 1 .42.716c.232.747.214 1.492.041 2.247-.161.699-.28 1.409-.445 2.107-.09.383.004.709.187 1.03q.029.053.063.102 1.49 2.026 2.992 4.047c.037.05.139.052.224.081.04-.111.103-.219.116-.333.167-1.509.321-3.019.492-4.527.04-.351-.08-.613-.31-.864a13.6 13.6 0 0 1-2.213-3.262c-.229-.47-.421-.952-.435-1.484a4 4 0 0 1 .023-.477c.035-.317.363-.551.696-.508.577.073 1.08.311 1.464.744.343.387.643.813.963 1.221.17.217.338.437.518.646.062.072.159.047.189-.052.079-.266.155-.534.208-.806.063-.322.199-.604.39-.866.286-.39.795-.426 1.145-.083.237.232.399.506.422.837.019.277-.005.556-.006.835 0 .168.179.253.344.16.174-.097.338-.214.516-.303.463-.233.927-.468 1.4-.68.332-.149.684-.214 1.052-.138.262.054.507.343.466.61-.029.193-.08.393-.169.565-.222.43-.522.814-.904 1.107-1.116.856-1.97 1.985-3.037 2.89-.231.196-.302.47-.362.739-.268 1.208-.522 2.42-.78 3.631-.058.273-.12.546-.166.822-.037.225-.179.508.056.657.177.112.36-.109.519-.221.228-.162.46-.324.662-.515a18.6 18.6 0 0 1 3.134-2.403c.348-.211.489-.506.544-.878.111-.75.094-1.514.283-2.258.267-1.051.65-2.052 1.183-2.994.076-.134.211-.234.318-.35-.497 1.189-.762 2.43-.855 3.714a20 20 0 0 1-.191 1.668c-.109.688-.378 1.306-.931 1.763-.523.433-1.036.882-1.585 1.279-.939.679-1.903 1.323-2.857 1.981a3 3 0 0 1-.306.185c-.363.195-.744-.041-.727-.47.014-.358.045-.72.113-1.071.235-1.215.512-2.423.73-3.641.141-.789.362-1.553.584-2.319q.207-.723.799-1.163c.321-.237.659-.45.997-.663.338-.212.69-.403 1.027-.617a3.56 3.56 0 0 0 1.168-1.183c.05-.084.058-.254.006-.321-.058-.073-.213-.107-.319-.096a1.2 1.2 0 0 0-.452.138 43 43 0 0 0-1.442.854c-.442.272-.872.564-1.315.835-.218.133-.403.045-.445-.18a4 4 0 0 1-.036-1.194q.041-.356.04-.715c0-.04-.102-.088-.164-.115-.025-.011-.093.015-.103.039-.084.222-.194.443-.228.674-.053.354-.055.717-.075 1.076a2.3 2.3 0 0 1-.228.924c-.154.302-.455.387-.675.151a7 7 0 0 1-.686-.828c-.29-.43-.534-.891-.813-1.329q-.385-.606-.811-1.186c-.09-.123-.237-.211-.373-.289-.047-.027-.143.016-.21.043-.03.012-.063.063-.063.097-.009.5.218.927.441 1.351.615 1.17 1.311 2.291 2.153 3.311.273.331.418.673.386 1.091-.049.637-.084 1.277-.163 1.91-.115.912-.256 1.82-.402 2.727-.063.394-.156.783-.251 1.171-.057.231-.375.364-.582.245-.17-.098-.347-.205-.476-.348-.565-.622-1.1-1.27-1.536-1.991-.497-.822-1.026-1.621-1.647-2.356-.154-.183-.286-.385-.42-.584-.232-.347-.336-.733-.243-1.142.159-.7.158-1.427.412-2.114.224-.606.237-1.254.204-1.897a1.6 1.6 0 0 0-.115-.458c-.025-.067-.097-.146-.162-.161-.056-.013-.159.041-.192.095-.515.855-1.058 1.699-1.169 2.728a3 3 0 0 1-.064.354c-.054.224-.373.346-.582.212a3.4 3.4 0 0 1-.473-.359c-.41-.381-.809-.774-1.216-1.158a2.7 2.7 0 0 0-.372-.3c-.057-.037-.166-.052-.219-.022-.122.07-.113.208-.062.314.104.215.226.421.347.627.342.587.692 1.169 1.027 1.76.097.171.16.364.226.551.048.134-.045.223-.139.297-.315.247-.675.232-1.029.138a3 3 0 0 1-.662-.277c-.867-.467-1.815-.588-2.773-.665-.112-.009-.23.045-.344.073-.08.02-.159.233-.113.3.044.063.077.145.137.184.672.44 1.402.765 2.168.998.261.079.553.109.826.091.852-.058 1.663.134 2.484.314.616.135 1.105.437 1.528.882.579.608 1.169 1.205 1.742 1.819q1.23 1.32 2.184 2.852c.191.307.357.621.349 1.003-.005.25-.233.459-.482.397-.579-.144-1.149-.337-1.735-.441a135 135 0 0 0-4.609-.744c-.719-.102-1.284-.394-1.71-.979a19 19 0 0 0-.812-1.039 51 51 0 0 0-1.405-1.638c-.266-.294-.544-.59-.931-.738-.037-.014-.104-.036-.112-.023-.04.06-.101.138-.088.196.04.193.089.39.17.569.3.656.672 1.271 1.123 1.836.249.313.499.625.738.945a.3.3 0 0 1 .043.225c-.039.136-.172.135-.284.125a4 4 0 0 1-.592-.08c-.748-.172-1.506-.183-2.266-.151-.222.009-.48-.066-.652.161-.094.125.167.359.592.49.264.081.542.116.814.172.351.073.703.143 1.052.225.114.027.222.086.33.137.265.123.334.387.139.573-.202.193-.417.372-.628.555-.76.655-1.349 1.468-2.034 2.192-.027.028-.041.068-.062.102-.094.153-.062.415.068.556.136.147.372.212.545.127q.322-.157.627-.347c1.188-.743 2.324-1.555 3.347-2.518.29-.273.584-.546.959-.71.223-.097.448-.205.689-.11.424.166.866.144 1.303.143 1.287-.001 2.55.163 3.781.541.232.071.456.126.702.107a1.5 1.5 0 0 1 .468.062c.065.017.154.09.162.147a.56.56 0 0 1-.046.331.7.7 0 0 1-.265.233c-.877.496-1.636 1.142-2.362 1.833-.405.386-.806.779-1.239 1.132-.431.351-.905.651-1.352.983-.333.248-.69.395-1.112.343-.396-.049-.794-.083-1.186-.149a7 7 0 0 0-3.199.212c-.056.017-.118.107-.126.169-.008.064.027.166.077.199a2.23 2.23 0 0 0 1.364.364c.689-.04 1.34.193 2.013.272.086.01.176.152.224.252.025.051-.017.169-.067.215a6 6 0 0 1-.558.446c-.423.3-.855.59-1.28.887-.134.094-.238.217-.252.388-.008.1.345.155.538.069q.437-.197.861-.418.479-.248.949-.512c.177-.1.373-.218.545-.067.156.137.142.364.111.565-.049.316-.077.638-.163.944-.21.75-.164 1.505-.085 2.262.006.059.08.116.131.164.056.053.238-.08.265-.191.01-.039.031-.075.035-.114.192-1.8.858-3.481 1.321-5.213.049-.183.188-.35.312-.503.099-.122.233-.219.361-.314a1286 1286 0 0 1 4.249-3.122c.16-.117.339-.21.516-.3.203-.102.503.037.6.25.123.27.118.544.048.821-.332 1.316-.671 2.63-1.002 3.946-.136.541-.31 1.08-.371 1.631a2.37 2.37 0 0 1-.791 1.558c-.881.813-1.748 1.642-2.617 2.469-.201.192-.389.399-.577.604-.019.021-.017.096.004.114.054.046.127.108.186.101.156-.017.319-.044.461-.107a5.1 5.1 0 0 0 1.479-1.005c.434-.412.89-.803 1.345-1.192.179-.153.432-.081.469.131.077.431.138.866.194 1.301.04.316.056.635.094.952.015.128.241.215.393.178.25-.062.437-.205.527-.441.056-.146.059-.312.093-.467.043-.194.087-.387.141-.578.044-.157.257-.217.377-.119.471.387.774.911 1.133 1.388.288.382.547.794.971 1.047.052.031.165.019.213-.019.047-.037.08-.143.062-.202a3 3 0 0 0-.22-.553c-.288-.526-.57-1.056-.891-1.561-.537-.847-.963-1.749-1.406-2.644-.127-.256-.222-.51-.218-.798.02-1.639-.009-3.28.25-4.907.094-.592.228-1.174.466-1.726a.352.352 0 0 1 .593-.092c1.232 1.418 2.444 2.853 3.567 4.361.166.223.295.474.437.715a3.57 3.57 0 0 1 .499 2.065q-.073 1.378-.097 2.757c-.008.437.031.875.056 1.312.006.101.075.153.156.123.069-.026.161-.066.184-.123.087-.22.165-.447.22-.677.158-.66.3-1.324.454-1.985.027-.115.073-.227.12-.336.125-.292.465-.395.687-.185.29.273.554.574.83.862.134.14.239.326.475.31.007.032.006.068.023.094.009.013.068.013.069.008q.03-.111-.108-.086c.072-.199.031-.392-.033-.584-.102-.303-.214-.603-.298-.91a2.6 2.6 0 0 1-.085-.587c-.014-.411.218-.596.602-.487.345.098.684.219 1.03.311.869.232 1.741.115 2.612.006.024-.003.061-.055.06-.084 0-.074.009-.184-.033-.216a2.8 2.8 0 0 0-.504-.308c-1.17-.54-2.407-.858-3.679-1.003-1.1-.126-1.959-.626-2.664-1.443-.156-.181-.291-.381-.439-.57-.467-.598-.946-1.186-1.399-1.793-.597-.8-1.178-1.612-1.753-2.427-.057-.081-.042-.229-.021-.338.008-.04.134-.084.204-.08.278.017.557.037.831.082 1.73.289 3.462.569 5.187.886 1.54.283 1.646.346 2.333 1.58.648 1.165 1.581 2.1 2.52 3.027.027.027.067.06.1.058a.6.6 0 0 0 .206-.043c.029-.012.062-.068.056-.097-.028-.155-.033-.328-.109-.458-.38-.656-.779-1.3-1.172-1.949-.144-.238-.301-.471-.426-.719-.135-.268.049-.609.334-.638.198-.02.398-.018.597-.023.559-.015 1.118-.025 1.676-.047a.8.8 0 0 0 .34-.093c.037-.02.055-.16.024-.209-.186-.292-.499-.388-.81-.452-.391-.08-.788-.134-1.185-.177-.445-.049-.839-.244-1.247-.4-.122-.047-.172-.305-.097-.411.144-.202.341-.33.559-.436.795-.387 1.48-.943 2.199-1.445.328-.229.631-.493.797-.873.028-.063.041-.169.007-.214-.039-.05-.144-.084-.212-.073-.484.081-.888.325-1.272.624-1.072.833-2.169 1.634-3.228 2.483-.412.33-.843.425-1.337.364-.158-.02-.315-.052-.472-.079-1.337-.225-2.671-.461-4.02-.612-.512-.057-1.016-.201-1.516-.334-.185-.049-.352-.176-.52-.278-.134-.082-.135-.319-.012-.414.031-.024.055-.059.089-.077.787-.41 1.431-1.01 2.123-1.55.848-.662 1.751-1.255 2.645-1.855.329-.221.699-.384 1.055-.564.328-.166.686-.23 1.047-.203.397.03.808.05 1.181.171.709.231 1.417.195 2.134.127.116-.011.236-.048.341-.099a.3.3 0 0 0 .139-.173c.014-.063-.012-.169-.059-.206-.124-.097-.259-.203-.407-.24a10 10 0 0 0-1.29-.255c-.589-.065-1.162-.25-1.762-.236-.103.002-.197-.21-.135-.288.097-.122.187-.257.307-.352.376-.297.768-.573 1.145-.868.188-.147.371-.306.528-.485.101-.115.154-.273.222-.414.016-.033.022-.102.006-.112-.064-.041-.149-.103-.209-.089-.788.189-1.469.598-2.133 1.044-.278.186-.598.045-.613-.274-.019-.396-.03-.8.021-1.191.062-.473.175-.942.299-1.404q.203-.761.151-1.54c-.012-.175-.131-.29-.309-.299-.158-.008-.317.017-.476.027a.68.68 0 0 1 .423-.393c.418-.131.818.037 1.006.423.288.591.343 1.225.301 1.869-.025.399-.086.795-.117 1.193-.009.113-.006.278.063.335.139.117.294-.004.431-.074.213-.109.415-.246.636-.333s.457-.148.692-.182c.53-.075.908.364.793.905-.11.523-.335.982-.76 1.324-.187.15-.38.292-.571.436-.125.094-.319.175-.29.346.043.256.306.178.48.221.31.077.634.105.936.203.454.147.902.318 1.336.517a.66.66 0 0 1 .402.677c-.021.304-.257.563-.617.642-.431.094-.866.149-1.309.103q-1.132-.119-2.264-.232c-.278-.027-.557-.045-.836-.064a1.3 1.3 0 0 0-.802.197c-.439.275-.919.508-1.298.851-.93.843-1.99 1.467-3.107 2.011a8 8 0 0 0-.521.289c-.027.016-.041.061-.054.095-.034.089.004.148.111.16.793.093 1.587.175 2.379.279.672.089 1.35.165 2.009.318.591.137 1.189.136 1.782.216.262.035.457-.072.648-.236a354 354 0 0 1 2.461-2.102c.492-.417 1.029-.757 1.656-.938.153-.044.306-.095.462-.119.736-.113 1.177.396.922 1.091-.094.255-.261.493-.435.706-.306.375-.712.637-1.118.895q-.81.512-1.611 1.037c-.057.037-.112.128-.108.189.004.05.092.126.152.136q.708.123 1.42.225c.53.078.979.328 1.397.645.063.048.116.11.17.168.256.277.201.758-.121.942-.348.199-.712.359-1.129.354-.32-.004-.639.005-.959.013-.116.003-.261.014-.275.151a.53.53 0 0 0 .101.32c.229.327.499.628.708.967.208.337.38.701.532 1.068.074.178.083.389.093.587.019.386-.12.722-.45.924-.338.207-.696.129-1.025-.06-.389-.224-.663-.566-.935-.915-.49-.631-.998-1.248-1.503-1.867-.101-.124-.224-.228-.328-.349-.644-.749-1.417-1.223-2.416-1.422-1.328-.264-2.628-.663-3.942-.997-.102-.026-.221.012-.341.021.094.399.397.62.628.888.549.637 1.069 1.29 1.499 2.017.222.375.494.731.798 1.043.45.461.988.816 1.623.981.733.191 1.472.357 2.205.548.732.191 1.463.39 2.189.605.352.104.632.324.848.632.416.595.165 1.29-.539 1.329-.874.049-1.75.178-2.63.065-.197-.025-.397-.03-.596-.04-.111-.005-.232.141-.196.239.096.262.202.52.296.783.08.225.167.451.22.683.099.435-.056.862-.374 1.063-.369.233-.765.251-1.138.039-.239-.136-.441-.339-.651-.522-.148-.13-.276-.284-.427-.409-.03-.025-.178.02-.187.054a8 8 0 0 0-.161.815c-.088.64-.261 1.253-.576 1.817a2.4 2.4 0 0 1-.436.561c-.247.239-.738.218-.992-.014a1.9 1.9 0 0 1-.467-.687c-.27-.642-.329-1.322-.305-2 .024-.676.014-1.361.194-2.025.042-.153.055-.315.072-.473.128-1.186.114-1.434-.559-2.496-.77-1.214-1.611-2.382-2.423-3.57-.067-.098-.135-.202-.224-.277a.27.27 0 0 0-.22-.038.25.25 0 0 0-.142.161c-.09.471-.183.942-.246 1.417-.169 1.266-.32 2.535-.486 3.802-.038.291.028.537.172.796.546.981 1.211 1.88 1.866 2.787.304.42.597.85.862 1.295.299.502.386 1.043.178 1.611-.081.221-.317.394-.552.382a1.4 1.4 0 0 1-.681-.199 3.5 3.5 0 0 1-1.033-.987c-.209-.292-.392-.603-.602-.894a.53.53 0 0 0-.274-.202c-.151-.036-.17.117-.197.223-.122.491-.389.866-.842 1.108-.38.204-.794.154-1.096-.161a1.5 1.5 0 0 1-.431-.964c-.021-.318-.032-.636-.051-.954-.006-.107-.19-.17-.284-.094q-.325.263-.643.534a8.5 8.5 0 0 1-1.798 1.181 1.8 1.8 0 0 1-.927.182c-.376-.027-.648-.347-.647-.729 0-.343.147-.622.358-.867a6.6 6.6 0 0 1 1.954-1.564c.618-.32 1.102-.783 1.579-1.27.409-.418.636-.904.684-1.49.075-.919.292-1.811.515-2.704.241-.967.442-1.945.652-2.92.014-.064-.023-.171-.073-.207-.047-.034-.161-.029-.214.007a20.4 20.4 0 0 0-2.523 2.019c-.553.52-1.084 1.065-1.649 1.572-.316.284-.5.615-.563 1.024l-.555 3.673c-.054.355-.085.717-.176 1.063a1.8 1.8 0 0 1-.32.632c-.436.562-1.254.481-1.6-.132-.163-.288-.222-.596-.255-.915a6.6 6.6 0 0 1 .194-2.377c.018-.068.002-.171-.041-.222-.085-.101-.203-.075-.312-.018-.142.074-.291.135-.426.22a3.8 3.8 0 0 1-1.215.489c-.295.064-.556-.014-.802-.157-.309-.18-.406-.648-.212-.95.177-.275.425-.47.693-.649.33-.221.651-.456.973-.689.025-.018.032-.067.038-.103.018-.102-.025-.162-.125-.165-.398-.013-.796-.029-1.194-.034-.575-.008-1.097-.196-1.592-.466a1.5 1.5 0 0 1-.365-.303c-.218-.233-.164-.664.103-.85a2.67 2.67 0 0 1 1.327-.499c.721-.061 1.439-.084 2.141.122.39.115.787.114 1.185.141.833.057 1.504-.288 1.992-.901.46-.579 1.03-.995 1.617-1.408l2.154-1.516-.035.026Z" data-color="1"/>
        <path fill="#40664b" d="M70.176 47.043c.732-.492 1.566-.781 2.348-1.172.139-.07.277-.149.398-.246.038-.031.05-.165.018-.2-.134-.145-.299-.261-.437-.403-.277-.286-.561-.569-.809-.878-.12-.149-.193-.35-.242-.539-.118-.45.305-.904.757-.818a6.5 6.5 0 0 1 1.793.63c.032.017.173-.08.168-.103-.074-.35-.153-.701-.253-1.045-.183-.625-.177-1.261-.141-1.902.023-.408.167-.781.351-1.136.231-.447.825-.571 1.237-.272.3.217.521.507.639.85.142.413.277.837.337 1.267.167 1.19.363 2.37.895 3.461.191.392.055.921.455 1.202.323.227.704.369 1.056.556.987.523 1.97 1.052 2.958 1.573.139.073.292.121.441.176.034.012.1.017.11 0a.8.8 0 0 0 .087-.208.2.2 0 0 0-.017-.116c-.448-1.121-.643-2.303-.85-3.483-.069-.392-.182-.777-.259-1.168-.093-.471-.377-.766-.79-.988-.703-.377-1.393-.779-2.085-1.176-.924-.531-1.628-1.278-2.144-2.206a3 3 0 0 1-.199-.435c-.164-.458.204-1.016.703-1.031.274-.008.56.02.824.093.581.161 1.106.448 1.595.804q.436.314.893.597c.032.02.175-.052.177-.087.02-.357.014-.715.03-1.073.013-.283.085-.544.287-.767.399-.44 1.102-.447 1.476-.001.21.249.337.532.417.85.084.334.043.715.33 1.007.328-.21.44-.573.664-.845.203-.246.378-.515.575-.766.246-.314.486-.635.758-.925.222-.237.508-.367.849-.389.606-.038.912.224.914.82a3.1 3.1 0 0 1-.199 1.051 9.4 9.4 0 0 1-1.581 2.806c-.723.888-.955 1.843-.669 2.907.343 1.273.654 2.549.847 3.854.017.117.059.235.113.34.026.05.106.08.167.1.024.008.08-.029.097-.059.138-.243.263-.493.404-.733.424-.723.807-1.475 1.293-2.154.426-.594.716-1.232.987-1.9.191-.471.221-.924.128-1.402-.152-.784-.297-1.569-.47-2.348-.113-.512-.129-1.029-.144-1.548a1.5 1.5 0 0 1 .219-.797c.335-.577.99-.642 1.369-.109.182.257.343.546.437.845.167.531.324 1.069.299 1.642-.01.235.035.473.062.708.003.022.05.049.08.056.036.008.096.01.111-.011.141-.193.27-.395.412-.587.166-.224.328-.454.517-.659.433-.468.943-.495 1.326.239.196.375.164.778.038 1.167-.15.459-.368.883-.73 1.219l.063.044-.056-.062c.244.204.525.158.8.104.548-.108 1.09-.252 1.642-.331a9.4 9.4 0 0 1 1.432-.078c.184.002.381.103.548.2.274.161.343.611.143.845q-.156.182-.349.323c-.459.339-.997.506-1.536.65-1.195.319-2.398.614-3.626.77-.392.05-.684.208-.895.522-.267.397-.539.792-.777 1.207-.713 1.248-1.344 2.544-2.225 3.691-.044.057-.079.172-.051.222.07.122.202.093.317.058l4.005-1.223c.343-.105.681-.269 1.031-.301.525-.049.911-.312 1.219-.681.738-.885 1.57-1.702 2.02-2.801.134-.327.333-.642.56-.915.407-.489.965-.534 1.502-.175.331.221.458.567.281.943-.374.794-.777 1.573-1.168 2.358-.055.111.016.279.123.281.24.005.48.011.719.003.336-.011.627.126.906.278.65.354.687 1.169.047 1.55-.433.258-.914.434-1.4.659.331.388.793.551 1.204.783.419.237.836.473 1.181.812.233.229.401.499.388.846-.008.212-.087.386-.28.493a1.75 1.75 0 0 1-1.276.174 5.8 5.8 0 0 1-1.662-.661c-.621-.362-1.259-.693-1.873-1.065-.511-.31-1.022-.372-1.603-.219-1.042.273-2.095.499-3.145.74-.622.143-1.247.273-1.868.42-.065.015-.122.095-.166.157-.101.144.019.223.114.282.372.233.738.483 1.13.678 1.11.554 2.197 1.142 3.196 1.883q.509.379 1.135.24c.389-.087.785-.149 1.17-.253 1.123-.303 2.282-.388 3.425-.567.273-.043.559-.035.837-.016.297.02.518.187.669.445a.59.59 0 0 1 .031.569c-.155.353-.442.583-.77.723-.585.249-1.159.539-1.807.614-.314.036-.638.057-.918.237-.08.052-.107.128-.03.196.357.317.721.627 1.084.938.247.211.442.459.57.76.135.316-.037.767-.358.916-.298.138-.607.155-.935.123-.568-.055-1.066-.318-1.598-.478-.095-.029-.243.102-.228.206.017.119.048.235.062.354.051.437.122.873.137 1.312a5.5 5.5 0 0 1-.077 1.071c-.03.188-.133.374-.239.537-.233.359-.762.37-1.025.032a3.3 3.3 0 0 1-.598-1.295c-.293-1.243-.604-2.482-.86-3.733-.104-.509-.336-.886-.744-1.177-.098-.07-.193-.143-.293-.208q-2.118-1.361-4.237-2.718a.4.4 0 0 0-.223-.072c-.047.004-.13.102-.121.14.146.621.296 1.241.463 1.857.282 1.04.617 2.068.854 3.118.162.72.495 1.209 1.169 1.546a14 14 0 0 1 3.412 2.417q.392.372.737.786c.251.303.292.647.103 1.006-.203.386-.531.565-.996.486a4 4 0 0 1-.918-.258c-.693-.305-1.371-.645-2.054-.972-.242-.116-.357-.028-.342.274.008.159.059.321.042.477a6 6 0 0 1-.163.938c-.108.382-.412.589-.786.657-.385.07-.706-.094-.953-.385-.238-.28-.351-.623-.448-.972a13 13 0 0 0-.216-.682c-.03-.087-.104-.1-.195-.051-.333.182-.493.511-.694.807-.313.463-.614.934-.944 1.384a1.62 1.62 0 0 1-.865.614c-.193.057-.501-.1-.582-.312-.145-.38-.209-.766-.13-1.174a4.5 4.5 0 0 1 .607-1.553c.404-.643.778-1.306 1.208-1.931a2.1 2.1 0 0 0 .377-1.115c.013-.239.031-.481.011-.719-.116-1.353-.179-2.714-.518-4.037-.149-.581-.09-1.202-.354-1.757-.017-.035-.054-.087-.078-.085-.065.005-.165.015-.188.057-.86 1.578-1.873 3.069-2.658 4.689q-.104.216-.216.428a1.96 1.96 0 0 0-.178 1.394c.252 1.13.481 2.265.745 3.392.111.474.175.946.118 1.425a2.4 2.4 0 0 1-.196.682c-.139.311-.379.507-.746.504a.74.74 0 0 1-.683-.411c-.181-.354-.36-.719-.463-1.099-.198-.732-.34-1.478-.512-2.217-.015-.063-.078-.151-.131-.161-.063-.012-.159.03-.207.081-.219.232-.425.477-.639.715-.189.21-.419.357-.667.496-.441.247-.945-.162-1.015-.525a1.54 1.54 0 0 1 .166-1.044q.338-.633.671-1.267c.017-.033.025-.105.011-.114-.062-.037-.142-.092-.202-.079q-.877.19-1.75.398c-.589.14-1.188.159-1.788.147-.506-.011-.906-.265-.943-.583-.054-.46.197-.776.565-.973a5.4 5.4 0 0 1 1.106-.442c1.037-.287 2.086-.536 3.126-.814.462-.124.909-.307 1.373-.417.354-.084.546-.297.68-.607.158-.366.327-.728.492-1.092.361-.799.668-1.624 1.198-2.342.161-.218.231-.505.332-.765.061-.157-.088-.343-.243-.31q-.29.063-.577.143l-3.57 1.008q-.116.032-.233.056c-.741.165-1.297.551-1.66 1.247-.351.672-.764 1.312-1.17 1.953-.299.472-.622.929-.952 1.379a1.63 1.63 0 0 1-.756.57c-.29.109-.548.044-.772-.168-.196-.185-.225-.402-.161-.655.13-.51.385-.963.634-1.418.287-.526.591-1.042.877-1.568.052-.097.104-.244.066-.329-.077-.173-.266-.116-.416-.105-.199.014-.398.063-.596.059-.357-.008-.721-.009-1.07-.076-.452-.087-.789-.362-1.005-.78-.141-.273-.097-.586.154-.743a7 7 0 0 1 .739-.39c.252-.117.517-.208.771-.322a.4.4 0 0 0 .173-.157c.074-.145-.056-.193-.15-.251-.722-.438-1.397-.935-1.929-1.598a4 4 0 0 1-.438-.706c-.164-.324-.065-.635.155-.888.228-.262.539-.335.875-.242.889.246 1.747.574 2.531 1.063a90 90 0 0 1 2.506 1.64c.213.143.416.218.668.133.189-.063.39-.091.575-.163 1.385-.534 2.844-.774 4.284-1.094q.468-.105.927-.242c.051-.015.09-.093.117-.151.009-.021-.027-.083-.057-.098-.212-.11-.422-.226-.643-.316-1.301-.53-2.537-1.172-3.637-2.057-.124-.1-.261-.184-.391-.277-.421-.303-.871-.349-1.365-.198a167 167 0 0 1-3.327.982 9 9 0 0 1-1.285.28c-.667.086-1.275-.062-1.706-.632-.096-.127-.132-.292.057-.401l-.02-.032c.374.359.828.479 1.326.391a14 14 0 0 0 1.28-.299c.692-.191 1.378-.406 2.069-.603.46-.131.92-.267 1.387-.367.4-.085.786-.05 1.131.233.277.227.573.445.892.604 1.215.604 2.442 1.184 3.665 1.771.647.311 1.302.606 1.943.93.307.155.298.507-.005.65-.214.101-.44.199-.67.241-1.025.185-2.017.486-3.002.814-.189.063-.378.132-.572.169-.98.185-1.972.319-2.939.558-.41.101-.689-.001-1.001-.197-.879-.554-1.764-1.097-2.644-1.65a11.3 11.3 0 0 0-2.036-1.01c-.11-.041-.259-.05-.312.076a.52.52 0 0 0 .001.335c.035.109.118.207.192.299.33.41.729.74 1.2.976.321.161.654.299.973.464.389.201.789.389 1.086.731.099.114.075.31-.048.423-.276.255-.614.365-.972.423-.553.089-1.098.205-1.613.429-.101.044-.182.145-.255.233-.047.056.173.293.29.332.436.146.873.088 1.302-.013.349-.082.685-.218 1.034-.302.229-.055.47-.067.707-.079.068-.003.155.047.207.099.095.095.073.207.003.315l-1.438 2.211c-.284.437-.544.888-.692 1.39a2.4 2.4 0 0 0-.073.589c-.002.06.066.152.124.176a.28.28 0 0 0 .227-.023c.132-.085.273-.177.362-.302.231-.325.457-.656.647-1.006.497-.912.973-1.835 1.458-2.754.13-.247.252-.499.398-.736a.63.63 0 0 1 .608-.315c.32.029.616.045.936-.077 1.833-.701 3.763-1.044 5.667-1.479.089-.02.214.051.299.112.028.02.005.157-.033.216-.828 1.277-1.497 2.635-2.112 4.025-.241.545-.568 1.052-.857 1.576-.222.404-.566.66-.99.825-.97.376-1.958.681-2.992.824-.798.11-1.559.342-2.251.764-.085.052-.149.177-.171.28-.039.179.133.179.235.189a4.4 4.4 0 0 0 1.547-.102q1.044-.265 2.09-.517c.154-.037.313-.053.471-.07.208-.022.369.178.312.392a3.4 3.4 0 0 1-.145.454c-.202.478-.42.95-.619 1.429-.075.181-.121.375-.168.567-.036.145.148.304.3.28.207-.032.389-.115.503-.289.217-.334.436-.669.617-1.023.147-.287.29-.568.533-.787a.48.48 0 0 1 .438-.127c.178.036.263.176.307.332.032.113.045.238.037.355-.087 1.282.358 2.436.854 3.577a.5.5 0 0 0 .134.192c.057.045.149.085.213.071.062-.013.132-.09.157-.154.133-.344.143-.701.081-1.062-.142-.826-.274-1.654-.427-2.479a47 47 0 0 0-.412-1.994c-.067-.291-.061-.571.1-.808.5-.737.779-1.574 1.107-2.386.484-1.195 1.195-2.257 1.88-3.336.129-.203.286-.382.509-.495.136-.069.338-.041.438.064.23.242.326.553.416.855q.445 1.492.853 2.994c.33 1.213.326 2.449.226 3.691-.04.495-.22.91-.531 1.305a25 25 0 0 0-1.309 1.862 5.7 5.7 0 0 0-.522 1.071c-.097.257-.128.548.021.814.063.112.383-.108.62-.449.204-.295.371-.618.588-.903.482-.634.981-1.257 1.488-1.87.056-.068.231-.09.326-.058a.4.4 0 0 1 .229.245c.103.426.164.863.266 1.289.065.27.167.532.266.792.073.191.254.283.363.235.134-.059.156-.172.159-.281.011-.399.007-.799.01-1.198.003-.479-.003-.959.02-1.438.004-.09.116-.193.204-.252.042-.028.166.008.213.055.256.252.53.494.741.78a2.5 2.5 0 0 0 1.353.936c.497.148.993.297 1.492.438.112.032.233.036.35.041a.13.13 0 0 0 .098-.062c.029-.069.076-.164.049-.215a1.4 1.4 0 0 0-.274-.385c-.726-.689-1.496-1.325-2.351-1.852-.408-.251-.801-.535-1.23-.744-.84-.409-1.216-1.113-1.375-1.982-.05-.275-.089-.553-.157-.823-.389-1.549-.786-3.096-1.18-4.644-.049-.193-.102-.385-.139-.581-.036-.192.201-.405.375-.339.186.07.375.138.549.233 1.545.843 3.044 1.76 4.465 2.799q.533.39 1.023.83c.271.244.463.545.506.926.125 1.124.607 2.145.941 3.209.029.093.058.213.201.209.015-.078.052-.158.041-.231-.146-.904-.197-1.828-.589-2.682-.129-.28.102-.562.412-.576.245-.011.481.022.695.14.245.135.481.286.717.435.406.255.82.494 1.285.625.062.017.167-.019.21-.068.032-.037.022-.153-.014-.2-.426-.552-.99-.915-1.62-1.195-.177-.079-.338-.197-.496-.311-.098-.07-.054-.385.061-.424a3 3 0 0 1 .568-.154c1.142-.167 2.304-.24 3.369-.748a2.3 2.3 0 0 0 .511-.302c.069-.059.08-.211.074-.319-.002-.043-.115-.11-.183-.117a4 4 0 0 0-1.425.105c-1.006.252-2.022.464-3.026.726-.813.213-1.567.172-2.302-.274-.682-.414-1.374-.823-2.096-1.16-1.062-.495-1.936-1.267-2.919-1.875-.032-.02-.047-.064-.074-.093-.078-.085-.045-.368.064-.433.17-.1.339-.22.526-.27a10 10 0 0 1 1.172-.244 18 18 0 0 0 3.028-.699c.417-.135.851-.215 1.277-.323.699-.177 1.337-.052 1.947.332q.863.541 1.76 1.024c.673.363 1.38.637 2.168.585a1 1 0 0 0 .328-.107c.076-.036-.02-.321-.16-.412-.3-.195-.598-.397-.918-.555-.644-.318-1.305-.601-1.951-.915-.212-.103-.402-.252-.593-.392-.106-.078-.074-.333.021-.434.171-.183.388-.274.617-.351.416-.139.835-.267 1.244-.424.14-.054.258-.172.374-.274.077-.067.061-.144-.012-.2-.34-.26-.726-.325-1.134-.241-.312.064-.619.159-.926.248-.173.05-.348.016-.416-.129a.6.6 0 0 1-.007-.455c.132-.289.307-.561.485-.825q.573-.847.967-1.788c.045-.107.124-.219.032-.325-.099-.113-.21-.027-.309.025-.842.447-1.423 1.164-1.916 1.943a8.4 8.4 0 0 1-1.373 1.645 3.56 3.56 0 0 1-1.414.838c-1.677.531-3.405.849-5.106 1.279-.237.06-.475.085-.682-.089-.162-.136-.149-.43.031-.775q.055-.106.116-.21c.758-1.269 1.513-2.541 2.279-3.806.186-.307.395-.602.613-.887.396-.518.863-.909 1.537-1.067.539-.126 1.06-.336 1.605-.467.814-.194 1.613-.45 2.419-.678.228-.065.459-.121.591-.351.076-.132-.048-.173-.599-.144-.758.04-1.514.109-2.271.149-.491.026-.951.107-1.323.467-.036.035-.16.023-.211-.013a.27.27 0 0 1-.094-.199c.012-.506.294-.905.554-1.304.242-.371.477-.739.553-1.184a.53.53 0 0 0-.12-.446c-.079-.093-.283-.05-.408.108-.224.281-.426.579-.653.856-.324.394-.384.972-.875 1.244-.022.012-.093-.015-.107-.042-.245-.473-.136-1.006-.254-1.504-.073-.309-.075-.635-.128-.95-.099-.592-.233-1.176-.537-1.704-.082-.143-.301-.261-.384-.191-.088.076-.196.166-.222.269a1.6 1.6 0 0 0-.056.59c.081.674.172 1.347.291 2.015.134.746.278 1.493.466 2.227.119.466.033.843-.213 1.246-.624 1.022-1.213 2.066-1.815 3.101-.321.553-.622 1.118-.964 1.658-.228.359-.369.81-.846.954-.461-.304-.444-.802-.502-1.263-.159-1.271-.375-2.526-.84-3.729a6.1 6.1 0 0 1-.391-2.231c.002-.576.124-1.12.475-1.58.757-.992 1.21-2.161 1.892-3.195.08-.121.071-.304.093-.46.004-.029-.033-.081-.063-.093-.067-.028-.165-.074-.21-.046-.134.081-.284.171-.365.298-.647 1.006-1.414 1.938-1.866 3.063a1.3 1.3 0 0 1-.24.404.4.4 0 0 1-.318.103.43.43 0 0 1-.257-.23c-.06-.143-.056-.311-.083-.468-.138-.792-.476-1.513-.806-2.237a.16.16 0 0 0-.092-.074c-.07-.023-.153-.06-.215-.041a.28.28 0 0 0-.166.155c-.046.149-.097.313-.078.462.046.355.121.708.204 1.057.046.193.131.377.198.565.04.113.083.225.115.34.05.178-.153.396-.346.389-.251-.009-.454-.114-.652-.263-.607-.455-1.211-.916-1.843-1.335-.465-.308-.972-.559-1.546-.595-.096-.006-.215.074-.292.148-.038.037-.029.163.003.226.438.836 1.058 1.49 1.916 1.91.681.333 1.346.701 2.033 1.022.711.333 1.113.882 1.269 1.634.097.469.207.936.294 1.407.293 1.576.7 3.117 1.383 4.575.051.108.11.222.119.337a.64.64 0 0 1-.077.326.24.24 0 0 1-.31.109c-.401-.175-.812-.338-1.189-.557-1.486-.861-2.951-1.757-4.443-2.607-.637-.363-1.012-.893-1.202-1.567a42 42 0 0 1-.516-2.092c-.167-.739-.301-1.485-.469-2.224-.071-.311-.193-.607-.429-.843-.098-.098-.361-.079-.411.052-.07.184-.162.37-.183.562-.077.679-.063 1.358.13 2.021.144.499.303.993.448 1.491.055.19.101.385.126.581.039.306-.267.562-.539.442a7 7 0 0 1-.843-.446c-.203-.125-.37-.308-.574-.431-.202-.123-.428-.211-.648-.301-.172-.07-.43-.023-.427.069a.7.7 0 0 0 .08.332c.279.453.704.758 1.127 1.061.225.161.467.3.683.472.098.078.083.223-.002.317a.75.75 0 0 1-.281.213c-1.163.423-2.348.764-3.584.898l.039.028Z" data-color="1"/>
        <path fill="#40664b" d="M69.699 47.28c.114-.169.301-.192.477-.237l-.039-.028c-.066.267-.314.174-.48.243z" data-color="1"/>
        <path fill="#40664b" d="m69.426 47.54.273-.26-.042-.022c-.044.124-.106.229-.252.251l.02.032Z" data-color="1"/>
    </g>
</svg>
